<svg version="1.1" id="Layer_1" xmlns="http://www.w3.org/2000/svg" xmlns:xlink="http://www.w3.org/1999/xlink" x="0px" y="0px"
	 width="100%" viewBox="0 0 2248 2248" enable-background="new 0 0 2248 2248" xml:space="preserve">
<path fill="#078000" opacity="1.000000" stroke="none" 
	d="
M308.000000,2250.000000 
	C206.011536,2250.000000 104.023079,2250.000000 2.017309,2250.000000 
	C2.017309,1500.762939 2.017309,751.525940 2.017309,2.144467 
	C751.152222,2.144467 1500.304565,2.144467 2249.728516,2.144467 
	C2249.728516,751.333252 2249.728516,1500.666626 2249.728516,2250.000000 
	C2149.142334,2250.000000 2048.487061,2250.000000 1946.881836,2249.172363 
	C1940.728638,2217.131836 1932.764526,2186.598877 1922.858032,2156.581787 
	C1911.456787,2122.036133 1896.780273,2088.887695 1879.354858,2056.957275 
	C1859.640015,2020.831543 1835.874268,1987.556152 1807.930054,1957.386719 
	C1780.390869,1927.654663 1749.265625,1902.156250 1714.184326,1881.737061 
	C1694.086670,1870.039185 1673.534058,1859.173828 1650.662476,1852.536987 
	C1651.361084,1843.031372 1652.181030,1833.502197 1652.708496,1823.956665 
	C1652.942871,1819.714722 1653.109863,1815.351807 1652.408325,1811.195557 
	C1649.357056,1793.119507 1639.025757,1778.807373 1627.760010,1765.078247 
	C1621.699463,1757.692749 1615.410889,1750.494385 1608.774902,1742.681396 
	C1649.135498,1699.351196 1678.787109,1650.141846 1697.687134,1594.331421 
	C1703.606812,1595.649170 1708.672974,1597.391479 1713.848267,1597.821777 
	C1735.472412,1599.619507 1756.247192,1596.304199 1776.035034,1586.989746 
	C1804.336182,1573.667480 1827.002075,1553.342407 1847.539185,1530.283936 
	C1859.273438,1517.109131 1870.791870,1503.733765 1882.799805,1490.813354 
	C1893.431274,1479.374023 1905.675415,1469.287354 1915.327759,1457.113159 
	C1938.372437,1428.047485 1954.799683,1395.714600 1960.394531,1358.393188 
	C1965.499634,1324.338135 1956.538330,1295.221313 1932.124878,1270.892334 
	C1929.580811,1268.357056 1927.127808,1265.730469 1924.364746,1262.869019 
	C1928.913940,1260.274292 1930.394897,1256.863403 1929.822876,1252.434692 
	C1928.802856,1244.538330 1928.297729,1236.549194 1926.818970,1228.742554 
	C1920.437378,1195.052612 1905.088623,1166.036499 1880.408569,1142.158081 
	C1876.574219,1138.448364 1875.704834,1134.973389 1876.824707,1129.784912 
	C1885.865601,1087.895752 1895.615845,1046.121094 1903.107300,1003.948730 
	C1908.849854,971.621521 1913.505127,938.868652 1915.272827,906.123108 
	C1917.820068,858.933533 1915.922607,811.708679 1908.251099,764.810547 
	C1898.389160,704.522339 1880.205688,647.254883 1850.826294,593.498352 
	C1818.492920,534.336670 1778.378906,481.019012 1731.211182,433.089569 
	C1712.563843,414.141144 1692.244873,396.790436 1672.172485,379.302917 
	C1642.978271,353.868439 1611.385986,331.499756 1577.853638,312.313995 
	C1540.880127,291.159424 1502.970581,271.614105 1465.182739,251.916748 
	C1428.097900,232.585861 1388.814209,219.145035 1348.000732,210.060898 
	C1321.346802,204.128403 1294.381348,199.571030 1267.188965,198.508118 
	C1229.965332,197.053055 1192.700317,196.896835 1155.505859,201.636368 
	C1126.118652,205.381058 1097.019409,210.326508 1068.283936,217.315414 
	C1026.834473,227.396576 986.532837,240.979218 947.059875,257.235382 
	C899.813232,276.692963 854.574951,299.987518 811.123657,326.741180 
	C764.246765,355.604004 719.653625,387.714325 679.589600,425.560272 
	C654.434509,449.322754 629.749268,473.736542 606.609009,499.438904 
	C577.852966,531.378845 552.658386,566.242920 530.255188,603.002991 
	C512.215271,632.603699 495.378265,662.862732 482.131561,694.967896 
	C463.998627,738.915710 456.018707,784.885742 455.974426,832.247803 
	C455.956696,851.198669 456.906555,870.168091 458.013580,889.094116 
	C458.474457,896.972717 459.992523,904.885315 461.903076,912.565247 
	C467.399628,934.659668 468.583099,957.216614 469.810211,979.780945 
	C470.091705,984.957214 469.851685,990.161865 469.851685,996.262207 
	C452.120880,996.262207 435.845673,996.262207 418.685852,996.208740 
	C410.951630,996.108032 404.096558,995.882568 397.254913,996.093933 
	C394.150757,996.189941 391.073334,997.151917 387.048737,997.758301 
	C363.257599,999.154236 340.336426,999.840210 317.561737,1002.041504 
	C288.866211,1004.815186 260.267273,1008.649963 231.672684,1012.379578 
	C217.678360,1014.204895 217.727905,1014.566040 215.875031,1028.903809 
	C215.747330,1029.891968 215.489090,1030.864258 215.380478,1031.853760 
	C212.812973,1055.244629 210.257721,1078.636841 207.151886,1102.617432 
	C206.141220,1110.269531 204.585617,1117.393066 207.796600,1125.121338 
	C207.693665,1142.101807 213.228287,1156.018188 224.498993,1167.469238 
	C236.166534,1179.323364 248.365204,1190.661743 259.859863,1202.677002 
	C270.093750,1213.374512 277.039612,1225.832275 280.283875,1240.691040 
	C291.907745,1293.928101 308.171906,1345.511597 337.284088,1392.211548 
	C360.931580,1430.145386 391.979980,1458.938721 435.738373,1472.117432 
	C442.373779,1474.115845 448.892120,1476.503174 455.714783,1478.794434 
	C455.028259,1486.573364 454.733124,1493.834106 453.694214,1500.986694 
	C449.912628,1527.021362 452.425140,1552.855347 456.812073,1578.453857 
	C463.278748,1616.187744 476.743134,1651.435669 496.146088,1684.542358 
	C528.388000,1739.555786 569.446716,1786.570557 620.832397,1824.461060 
	C626.624695,1828.732300 632.286865,1833.179932 637.415771,1837.092896 
	C627.350952,1860.762817 617.537354,1883.329224 608.225464,1906.100830 
	C605.889893,1911.812378 601.599609,1913.042358 596.619873,1913.847656 
	C574.088806,1917.491333 552.783325,1924.947388 532.435608,1935.050903 
	C486.687042,1957.766846 450.743530,1991.999268 420.185944,2032.235474 
	C386.526733,2076.555664 361.501678,2125.707520 340.073730,2176.868164 
	C329.791809,2201.416992 318.716217,2225.633057 308.000000,2250.000000 
z"/>
<path fill="#030402" opacity="1.000000" stroke="none" 
	d="
M207.700195,1102.028809 
	C210.257721,1078.636841 212.812973,1055.244629 215.380478,1031.853760 
	C215.489090,1030.864258 215.747330,1029.891968 215.875031,1028.903809 
	C217.727905,1014.566040 217.678360,1014.204895 231.672684,1012.379578 
	C260.267273,1008.649963 288.866211,1004.815186 317.561737,1002.041504 
	C340.336426,999.840210 363.257599,999.154236 387.973389,997.911255 
	C399.745544,997.438782 409.657990,996.850525 419.570465,996.262207 
	C435.845673,996.262207 452.120880,996.262207 469.851685,996.262207 
	C469.851685,990.161865 470.091705,984.957214 469.810211,979.780945 
	C468.583099,957.216614 467.399628,934.659668 461.903076,912.565247 
	C459.992523,904.885315 458.474457,896.972717 458.013580,889.094116 
	C456.906555,870.168091 455.956696,851.198669 455.974426,832.247803 
	C456.018707,784.885742 463.998627,738.915710 482.131561,694.967896 
	C495.378265,662.862732 512.215271,632.603699 530.255188,603.002991 
	C552.658386,566.242920 577.852966,531.378845 606.609009,499.438904 
	C629.749268,473.736542 654.434509,449.322754 679.589600,425.560272 
	C719.653625,387.714325 764.246765,355.604004 811.123657,326.741180 
	C854.574951,299.987518 899.813232,276.692963 947.059875,257.235382 
	C986.532837,240.979218 1026.834473,227.396576 1068.283936,217.315414 
	C1097.019409,210.326508 1126.118652,205.381058 1155.505859,201.636368 
	C1192.700317,196.896835 1229.965332,197.053055 1267.188965,198.508118 
	C1294.381348,199.571030 1321.346802,204.128403 1348.000732,210.060898 
	C1388.814209,219.145035 1428.097900,232.585861 1465.182739,251.916748 
	C1502.970581,271.614105 1540.880127,291.159424 1577.853638,312.313995 
	C1611.385986,331.499756 1642.978271,353.868439 1672.172485,379.302917 
	C1692.244873,396.790436 1712.563843,414.141144 1731.211182,433.089569 
	C1778.378906,481.019012 1818.492920,534.336670 1850.826294,593.498352 
	C1880.205688,647.254883 1898.389160,704.522339 1908.251099,764.810547 
	C1915.922607,811.708679 1917.820068,858.933533 1915.272827,906.123108 
	C1913.505127,938.868652 1908.849854,971.621521 1903.107300,1003.948730 
	C1895.615845,1046.121094 1885.865601,1087.895752 1876.824707,1129.784912 
	C1875.704834,1134.973389 1876.574219,1138.448364 1880.408569,1142.158081 
	C1905.088623,1166.036499 1920.437378,1195.052612 1926.818970,1228.742554 
	C1928.297729,1236.549194 1928.802856,1244.538330 1929.822876,1252.434692 
	C1930.394897,1256.863403 1928.913940,1260.274292 1924.364746,1262.869019 
	C1927.127808,1265.730469 1929.580811,1268.357056 1932.124878,1270.892334 
	C1956.538330,1295.221313 1965.499634,1324.338135 1960.394531,1358.393188 
	C1954.799683,1395.714600 1938.372437,1428.047485 1915.327759,1457.113159 
	C1905.675415,1469.287354 1893.431274,1479.374023 1882.799805,1490.813354 
	C1870.791870,1503.733765 1859.273438,1517.109131 1847.539185,1530.283936 
	C1827.002075,1553.342407 1804.336182,1573.667480 1776.035034,1586.989746 
	C1756.247192,1596.304199 1735.472412,1599.619507 1713.848267,1597.821777 
	C1708.672974,1597.391479 1703.606812,1595.649170 1697.687134,1594.331421 
	C1678.787109,1650.141846 1649.135498,1699.351196 1608.774902,1742.681396 
	C1615.410889,1750.494385 1621.699463,1757.692749 1627.760010,1765.078247 
	C1639.025757,1778.807373 1649.357056,1793.119507 1652.408325,1811.195557 
	C1653.109863,1815.351807 1652.942871,1819.714722 1652.708496,1823.956665 
	C1652.181030,1833.502197 1651.361084,1843.031372 1650.662476,1852.536987 
	C1673.534058,1859.173828 1694.086670,1870.039185 1714.184326,1881.737061 
	C1749.265625,1902.156250 1780.390869,1927.654663 1807.930054,1957.386719 
	C1835.874268,1987.556152 1859.640015,2020.831543 1879.354858,2056.957275 
	C1896.780273,2088.887695 1911.456787,2122.036133 1922.858032,2156.581787 
	C1932.764526,2186.598877 1940.728638,2217.131836 1945.965942,2249.172363 
	C1941.916626,2250.000000 1937.833374,2250.000000 1933.086426,2249.154297 
	C1932.038696,2245.005859 1931.886353,2241.656494 1931.234741,2238.407715 
	C1922.898804,2196.840576 1910.829590,2156.419434 1894.271973,2117.347412 
	C1865.023926,2048.329102 1824.859863,1986.994629 1768.390259,1936.955444 
	C1735.658081,1907.950684 1699.184814,1885.047241 1658.728760,1868.479614 
	C1655.764282,1867.265625 1652.625854,1866.476807 1649.736816,1865.544678 
	C1648.933228,1867.086426 1648.446167,1867.641968 1648.351318,1868.258057 
	C1643.223999,1901.529541 1635.687378,1934.279907 1625.730591,1966.401001 
	C1615.483398,1999.458496 1605.530640,2032.690674 1593.268799,2065.019531 
	C1577.661743,2106.168213 1557.039795,2145.112305 1535.849487,2183.675781 
	C1530.877808,2192.723389 1525.823853,2201.727295 1520.720215,2210.701172 
	C1517.096313,2217.073486 1514.074585,2217.660889 1507.996338,2213.454834 
	C1505.534058,2211.750977 1503.039185,2210.093262 1500.535522,2208.450195 
	C1481.887939,2196.212891 1462.897705,2184.463867 1444.660400,2171.643311 
	C1415.781128,2151.341797 1387.819336,2129.720215 1358.710693,2109.763672 
	C1322.676636,2085.059082 1284.003540,2066.006836 1239.804077,2060.817383 
	C1228.041382,2059.436279 1216.267456,2059.230469 1203.503418,2060.561035 
	C1204.919067,2065.220947 1205.847046,2068.701416 1207.031738,2072.092285 
	C1210.105347,2080.889404 1213.943481,2089.480957 1216.233887,2098.470947 
	C1218.175903,2106.093994 1219.909180,2114.332520 1219.040161,2121.993164 
	C1217.204712,2138.174805 1208.509521,2151.245850 1196.235718,2161.791748 
	C1180.746582,2175.100098 1161.883545,2179.585693 1142.316406,2179.473633 
	C1125.771606,2179.379150 1109.137085,2177.293945 1092.732300,2174.826416 
	C1071.700317,2171.663330 1050.867188,2167.189453 1029.928833,2163.387695 
	C1025.357666,2162.557617 1020.676758,2162.339844 1016.097046,2161.547119 
	C1012.120361,2160.858643 1009.097534,2158.862305 1009.779541,2154.173340 
	C1010.455322,2149.527100 1013.910889,2148.613037 1017.909424,2148.754883 
	C1018.566345,2148.777832 1019.213989,2149.010010 1019.870056,2149.120850 
	C1035.275146,2151.730713 1050.733276,2154.063477 1066.074951,2157.003906 
	C1093.541260,2162.267334 1120.915527,2168.394775 1149.151245,2166.119873 
	C1156.372559,2165.537842 1163.701538,2164.163086 1170.587524,2161.936035 
	C1192.773926,2154.760010 1215.901978,2128.361816 1202.673218,2096.607178 
	C1198.329956,2086.181885 1194.910767,2075.347412 1191.543457,2064.552246 
	C1190.282715,2060.510010 1189.988770,2056.049072 1189.966919,2051.775146 
	C1189.949463,2048.357422 1192.346313,2046.354248 1195.921021,2046.464844 
	C1207.475586,2046.822388 1219.031494,2047.168579 1230.579712,2047.681152 
	C1267.336426,2049.312744 1300.797974,2061.639404 1332.755127,2079.035156 
	C1361.530396,2094.698975 1387.936646,2113.873047 1414.146118,2133.348633 
	C1442.487183,2154.408203 1470.406738,2176.064697 1500.902588,2194.033447 
	C1504.218628,2195.987549 1507.806519,2197.480225 1511.934204,2199.515137 
	C1514.636597,2195.020508 1516.960938,2191.430420 1519.013794,2187.691162 
	C1526.227173,2174.550293 1533.591553,2161.484131 1540.455688,2148.161133 
	C1558.764648,2112.624756 1576.874634,2076.964355 1589.459717,2038.876343 
	C1611.392334,1972.498901 1633.428467,1906.139282 1639.221191,1835.782593 
	C1640.352905,1822.038330 1641.192749,1808.559570 1633.838013,1795.983276 
	C1624.422852,1779.883545 1611.948486,1766.247681 1599.760376,1751.719116 
	C1552.302002,1798.945435 1497.548096,1833.754517 1436.083618,1859.256226 
	C1436.890625,1865.975952 1432.829712,1870.161621 1428.531372,1874.486450 
	C1407.494751,1895.652222 1383.890991,1913.483643 1358.329102,1928.742676 
	C1321.819702,1950.536743 1282.646973,1966.421387 1242.508789,1980.009888 
	C1197.103638,1995.381348 1151.757080,2010.959473 1106.072876,2025.463989 
	C1055.919800,2041.387207 1013.355347,2070.616211 972.008972,2101.510986 
	C946.563843,2120.524170 930.469971,2147.075195 923.446899,2178.621338 
	C918.208252,2202.152100 917.865112,2226.144287 916.000000,2250.000000 
	C912.571289,2250.000000 909.142578,2250.000000 904.815552,2249.069824 
	C905.187744,2230.893799 906.128784,2213.615967 907.796509,2196.408691 
	C911.402039,2159.208008 926.256714,2127.250488 953.244080,2101.124023 
	C955.031433,2099.394043 956.434448,2097.266846 958.405029,2094.846924 
	C943.893738,2082.912109 930.025391,2071.491699 916.141785,2060.090088 
	C892.189636,2040.420166 868.460388,2020.521606 847.998352,1997.066162 
	C826.455872,1972.372192 809.910034,1944.969482 801.684753,1912.951294 
	C801.123596,1910.766968 800.041687,1908.716553 799.157349,1906.491699 
	C745.734009,1894.635620 696.400085,1873.525269 650.618652,1845.357300 
	C649.135132,1846.348877 648.405334,1846.590820 648.089111,1847.093140 
	C647.028870,1848.777222 646.017395,1850.506958 645.161255,1852.302368 
	C612.400818,1921.001587 589.465393,1992.650635 580.514160,2068.461426 
	C579.957764,2073.173340 580.441772,2078.008301 580.441772,2082.853516 
	C581.761902,2082.647217 582.508789,2082.734131 582.996338,2082.419434 
	C585.230835,2080.976807 587.380737,2079.404053 589.582581,2077.909912 
	C624.543945,2054.185303 660.888611,2033.465210 703.554565,2027.152466 
	C730.865112,2023.111938 757.392700,2025.786743 782.365845,2038.387329 
	C788.544861,2041.505005 794.052734,2046.175781 801.592407,2041.046631 
	C802.825378,2040.207886 807.233765,2042.310181 808.858887,2044.190308 
	C811.142700,2046.832520 809.607483,2049.994629 806.876770,2051.895996 
	C804.997620,2053.204102 802.691650,2053.889160 800.605164,2054.911621 
	C778.046814,2065.965088 756.404053,2078.460938 739.450806,2097.427979 
	C734.674316,2102.771729 731.146240,2109.367432 727.737061,2115.757568 
	C724.510681,2121.804932 726.760742,2127.363281 731.083130,2132.226807 
	C736.488098,2138.308350 743.606689,2141.133789 751.357849,2141.912598 
	C762.596313,2143.041748 773.911316,2143.385986 785.181213,2144.230469 
	C801.092651,2145.422363 817.065918,2146.194336 832.875244,2148.219238 
	C846.194336,2149.925049 858.650574,2154.930664 869.699158,2162.775146 
	C874.284058,2166.030518 875.254333,2169.970215 872.772827,2172.874023 
	C869.772827,2176.384033 866.363708,2175.629883 862.976074,2173.365723 
	C845.697083,2161.817383 826.120178,2158.701660 805.936035,2157.845703 
	C790.634583,2157.196777 775.318848,2156.800049 760.032959,2155.894775 
	C749.679077,2155.281494 739.527954,2153.305420 730.394409,2147.960693 
	C715.531128,2139.263428 710.083984,2124.322021 716.848145,2108.613281 
	C719.565552,2102.302734 723.536194,2096.270020 728.010986,2091.028320 
	C739.795532,2077.223633 754.227905,2066.478760 769.736816,2057.145508 
	C772.493103,2055.486816 775.117004,2053.607910 777.891479,2051.771729 
	C776.869446,2050.527100 776.543884,2049.916260 776.038147,2049.563721 
	C775.228271,2048.998779 774.320374,2048.558105 773.416931,2048.146240 
	C744.022156,2034.746216 713.963867,2035.459473 683.669495,2044.306030 
	C651.625732,2053.663574 623.059448,2069.981445 595.935669,2089.046875 
	C589.123169,2093.835205 582.572754,2099.011230 575.618652,2103.577881 
	C571.113342,2106.536133 566.977661,2104.544678 566.043335,2099.345703 
	C565.637451,2097.087158 565.782654,2094.676270 566.007812,2092.366455 
	C567.524536,2076.808594 568.481934,2061.160645 570.834534,2045.727051 
	C576.662292,2007.496216 585.947876,1970.058350 598.371155,1933.413574 
	C599.050842,1931.408691 599.228455,1929.233521 599.638855,1927.142700 
	C598.176636,1926.854126 597.509888,1926.523071 596.936035,1926.641602 
	C593.028748,1927.449097 589.119690,1928.266235 585.250061,1929.235474 
	C540.453918,1940.456421 502.523743,1963.760010 469.596893,1995.580322 
	C427.563904,2036.200195 396.943573,2084.858398 372.085754,2137.242432 
	C358.244629,2166.410156 345.969513,2196.324219 333.166626,2225.979004 
	C329.772827,2233.839844 327.037567,2241.985352 324.000000,2250.000000 
	C319.258881,2250.000000 314.517792,2250.000000 308.888367,2250.000000 
	C318.716217,2225.633057 329.791809,2201.416992 340.073730,2176.868164 
	C361.501678,2125.707520 386.526733,2076.555664 420.185944,2032.235474 
	C450.743530,1991.999268 486.687042,1957.766846 532.435608,1935.050903 
	C552.783325,1924.947388 574.088806,1917.491333 596.619873,1913.847656 
	C601.599609,1913.042358 605.889893,1911.812378 608.225464,1906.100830 
	C617.537354,1883.329224 627.350952,1860.762817 637.415771,1837.092896 
	C632.286865,1833.179932 626.624695,1828.732300 620.832397,1824.461060 
	C569.446716,1786.570557 528.388000,1739.555786 496.146088,1684.542358 
	C476.743134,1651.435669 463.278748,1616.187744 456.812073,1578.453857 
	C452.425140,1552.855347 449.912628,1527.021362 453.694214,1500.986694 
	C454.733124,1493.834106 455.028259,1486.573364 455.714783,1478.794434 
	C448.892120,1476.503174 442.373779,1474.115845 435.738373,1472.117432 
	C391.979980,1458.938721 360.931580,1430.145386 337.284088,1392.211548 
	C308.171906,1345.511597 291.907745,1293.928101 280.283875,1240.691040 
	C277.039612,1225.832275 270.093750,1213.374512 259.859863,1202.677002 
	C248.365204,1190.661743 236.166534,1179.323364 224.498993,1167.469238 
	C213.228287,1156.018188 207.693665,1142.101807 207.924286,1124.183594 
	C207.912598,1115.596558 207.806396,1108.812744 207.700195,1102.028809 
M1739.102661,1235.130981 
	C1734.095947,1233.553223 1729.089233,1231.975464 1722.851685,1229.564941 
	C1716.000366,1227.093140 1709.148926,1224.621338 1701.182983,1221.226562 
	C1690.856689,1216.614380 1680.631958,1211.755249 1670.177734,1207.453857 
	C1657.830322,1202.373535 1645.594116,1203.908325 1633.106079,1208.041504 
	C1621.218384,1211.976196 1615.979614,1220.869263 1612.975464,1231.702148 
	C1609.596191,1243.888184 1606.955688,1256.276978 1603.815308,1268.531738 
	C1593.725952,1307.903442 1582.891968,1347.042847 1565.844238,1384.123901 
	C1551.950317,1414.344971 1534.305176,1441.989136 1510.060181,1465.120483 
	C1485.426880,1488.622070 1456.554688,1503.475464 1422.626587,1507.497559 
	C1359.337280,1515.000244 1295.846191,1518.657471 1232.092896,1516.051758 
	C1197.466675,1514.636597 1162.970215,1512.340454 1128.761963,1506.024292 
	C1079.377197,1496.906006 1041.664917,1470.838135 1014.117188,1429.454590 
	C1006.929321,1418.656616 999.739441,1407.695801 994.117310,1396.052979 
	C980.949036,1368.783081 968.443542,1341.181396 956.203430,1313.478149 
	C942.873779,1283.309082 930.092163,1252.870728 911.993164,1225.141602 
	C905.829956,1215.699219 898.957642,1206.587769 891.433960,1198.200073 
	C883.025818,1188.825928 871.805298,1185.867676 859.493896,1188.705444 
	C851.321350,1190.589355 843.869690,1194.201050 837.694885,1200.200439 
	C838.042053,1206.716797 838.476929,1213.025635 838.697266,1219.341919 
	C839.594543,1245.059326 834.889526,1269.660645 824.172668,1293.126343 
	C822.023865,1297.831421 819.436340,1300.308105 813.816956,1300.616211 
	C803.536133,1301.180054 793.257202,1302.467651 783.080078,1304.094849 
	C761.211487,1307.591187 740.146973,1313.533447 721.736938,1326.550537 
	C709.666199,1335.085571 700.420593,1346.020508 696.855469,1360.511353 
	C690.458740,1386.511597 695.058472,1410.172974 714.312622,1429.804810 
	C734.306091,1450.190430 759.529419,1459.861450 787.138306,1463.945312 
	C796.315186,1465.302734 805.711731,1465.232056 815.015137,1465.650635 
	C818.799561,1465.821045 821.707397,1467.012817 822.024048,1471.117920 
	C822.375427,1475.672852 819.658020,1477.757568 815.336792,1477.984375 
	C813.008118,1478.106567 810.673889,1478.151978 808.341675,1478.174927 
	C786.740723,1478.388428 766.069519,1473.758545 747.474487,1466.490112 
	C735.818604,1470.287354 725.452454,1473.732544 715.043640,1477.043579 
	C669.135437,1491.646973 622.931396,1504.081299 573.913452,1497.807251 
	C553.770386,1495.229004 533.488098,1493.680298 513.394836,1490.789673 
	C498.636627,1488.666626 484.082886,1485.122070 468.762054,1482.076660 
	C467.895081,1488.265991 466.794952,1494.106323 466.295319,1499.997681 
	C461.230042,1559.725342 472.733368,1616.142578 501.876556,1668.494385 
	C559.639099,1772.256714 645.181458,1843.151123 757.411011,1881.694336 
	C772.787109,1886.974854 788.811096,1890.386597 804.573120,1894.518921 
	C813.118774,1896.759277 813.096130,1896.761841 813.496643,1905.706787 
	C813.642578,1908.965332 814.576355,1912.237915 815.493164,1915.404907 
	C824.909607,1947.931396 843.785828,1974.674683 866.775269,1998.860718 
	C898.031250,2031.743896 935.213562,2057.760986 969.177917,2087.768311 
	C982.381897,2078.586426 995.205017,2069.604980 1008.095337,2060.720947 
	C1028.154053,2046.896484 1048.683105,2033.828735 1071.783813,2025.600586 
	C1111.270508,2011.536255 1150.731079,1997.376221 1190.454956,1984.006348 
	C1233.357544,1969.566650 1276.557007,1956.010132 1317.454834,1936.268799 
	C1352.151245,1919.520874 1384.519653,1899.331787 1413.435913,1871.967651 
	C1414.861694,1870.436035 1416.287598,1868.904541 1417.713379,1867.373047 
	C1417.456787,1867.019775 1417.200195,1866.666626 1416.943604,1866.313477 
	C1415.330444,1866.980957 1413.717285,1867.648560 1410.507202,1868.761719 
	C1378.125977,1880.323730 1344.836548,1888.278931 1310.893311,1893.505127 
	C1301.031982,1895.023560 1291.061768,1895.883545 1281.118896,1896.797974 
	C1277.454712,1897.135010 1274.493164,1895.614502 1274.015991,1891.462891 
	C1273.545776,1887.373047 1275.998657,1885.356323 1279.612305,1884.480469 
	C1280.892578,1884.170044 1282.255859,1884.204346 1283.580688,1884.075439 
	C1335.961304,1878.977661 1386.465576,1866.314575 1434.940308,1845.872559 
	C1512.540894,1813.147949 1578.802490,1765.389160 1629.687134,1697.560303 
	C1654.828613,1664.047241 1673.612549,1627.234863 1686.465698,1587.184204 
	C1666.265015,1571.570679 1655.442383,1549.884644 1645.794678,1527.409546 
	C1645.270996,1526.189575 1644.659180,1524.975342 1644.365479,1523.694946 
	C1643.575439,1520.248535 1645.015747,1517.318848 1648.222046,1516.666504 
	C1650.364502,1516.230591 1653.498535,1517.234009 1655.149292,1518.735718 
	C1656.968872,1520.391357 1657.486450,1523.416016 1658.767334,1525.736084 
	C1665.348511,1537.656738 1671.116577,1550.145996 1678.805542,1561.309448 
	C1692.813721,1581.648193 1712.734497,1588.737671 1737.191528,1585.161255 
	C1764.194458,1581.212769 1787.447998,1569.499756 1807.210693,1551.447876 
	C1823.401123,1536.658813 1838.094849,1520.227051 1853.385620,1504.458984 
	C1863.342163,1494.191650 1872.825317,1483.439453 1883.136963,1473.546997 
	C1915.208496,1442.779175 1937.780151,1406.499268 1946.802002,1362.738403 
	C1952.827637,1333.511108 1947.629517,1306.553223 1926.900879,1283.603271 
	C1903.270020,1257.439819 1873.818726,1248.290771 1838.866577,1252.537598 
	C1836.948242,1259.238525 1832.359619,1260.775513 1825.915771,1258.187866 
	C1820.632935,1256.066284 1815.601807,1257.469849 1810.445679,1259.273193 
	C1780.032349,1269.909912 1753.822632,1287.101929 1731.003662,1309.675903 
	C1728.639038,1312.015259 1726.340210,1314.800781 1722.445801,1313.357788 
	C1718.149292,1311.765747 1717.673340,1308.259033 1719.578003,1303.757568 
	C1741.056519,1281.210327 1766.568604,1264.372314 1796.830322,1250.700317 
	C1776.521484,1245.409424 1758.403809,1240.689331 1739.102661,1235.130981 
M496.505554,1163.067017 
	C494.749512,1161.620728 493.174255,1159.814209 491.191711,1158.819214 
	C488.712891,1157.575439 485.405243,1155.641968 483.325928,1156.398438 
	C477.907379,1158.369995 472.992462,1156.623901 467.783600,1156.387329 
	C443.529022,1155.286255 419.248230,1154.482178 394.971558,1154.307617 
	C387.107330,1154.250977 379.251129,1156.653931 371.346161,1157.520508 
	C365.393250,1158.173096 363.719482,1161.279907 363.728729,1166.906860 
	C363.763184,1187.872437 364.606812,1208.698975 367.450348,1229.562378 
	C371.999298,1262.938110 381.583374,1294.479980 397.858246,1323.940063 
	C413.537872,1352.322876 435.373383,1374.712891 464.163635,1389.832642 
	C469.775513,1392.779907 475.589722,1396.689453 482.065704,1395.874634 
	C492.813049,1378.723145 503.182007,1362.175537 513.754822,1345.302612 
	C498.914368,1330.219482 489.740326,1312.041626 484.946320,1291.531128 
	C479.671661,1268.963989 478.547485,1246.039185 480.427643,1223.097290 
	C481.424347,1210.935425 483.685242,1198.764648 489.096283,1187.430054 
	C492.655518,1179.974487 495.378052,1172.119629 499.050568,1163.994141 
	C498.605682,1163.886230 498.160828,1163.778442 496.505554,1163.067017 
M1177.930542,1087.077148 
	C1151.032837,1089.602417 1124.422852,1093.696899 1098.594116,1101.907349 
	C1070.886597,1110.715088 1045.659546,1123.805176 1025.918945,1145.706909 
	C1021.787231,1150.290894 1018.302612,1155.865845 1015.947876,1161.573242 
	C1005.606201,1186.639771 1005.360046,1212.776611 1008.789673,1239.203491 
	C1011.721008,1261.790771 1019.159973,1283.204102 1025.833130,1304.805908 
	C1035.950195,1337.555908 1053.011597,1366.130615 1077.705566,1390.056152 
	C1099.291870,1410.970825 1125.059570,1423.224854 1154.877075,1426.105957 
	C1184.025269,1428.921997 1213.239990,1431.298340 1242.479370,1432.854614 
	C1274.449829,1434.556152 1306.389282,1432.815674 1338.150391,1428.683472 
	C1352.661621,1426.795532 1367.042969,1423.654175 1381.596802,1422.401733 
	C1407.556763,1420.167725 1429.783325,1410.378662 1448.489502,1392.368286 
	C1459.622803,1381.649170 1468.560425,1369.264771 1476.057495,1355.811523 
	C1491.785522,1327.587891 1500.819336,1297.033447 1507.137939,1265.578369 
	C1516.512939,1218.907227 1514.257324,1172.956421 1498.747559,1127.729492 
	C1496.198730,1120.296997 1491.981567,1114.782837 1485.553345,1110.912964 
	C1481.026611,1108.187744 1476.243042,1105.572754 1471.229736,1104.022461 
	C1434.552002,1092.681030 1397.122437,1085.024536 1358.805298,1081.977173 
	C1322.539429,1079.092651 1286.273682,1079.444946 1248.254028,1081.589722 
	C1242.593384,1081.992554 1236.932739,1082.395386 1231.272095,1082.798218 
	C1231.277222,1083.201294 1231.282471,1083.604248 1231.287598,1084.007324 
	C1237.523438,1084.007324 1243.759277,1084.007324 1251.649536,1084.242065 
	C1254.942993,1084.723145 1258.227661,1085.278564 1261.531372,1085.673462 
	C1292.935669,1089.427612 1322.645264,1098.638916 1350.434326,1113.735474 
	C1387.754517,1134.009888 1417.112061,1162.156250 1434.830078,1201.283691 
	C1445.977173,1225.900269 1451.863892,1251.653564 1449.239258,1278.891113 
	C1445.727905,1315.331909 1427.434937,1343.273071 1399.009033,1365.134644 
	C1351.319458,1401.811279 1297.187500,1412.628296 1238.679199,1403.312012 
	C1189.687012,1395.510864 1145.404541,1375.689087 1107.196777,1344.328979 
	C1076.887085,1319.451538 1059.686646,1286.460083 1058.028320,1246.528564 
	C1056.956543,1220.721436 1064.118408,1196.475342 1073.656860,1172.917480 
	C1081.684082,1153.091675 1094.608154,1136.715210 1111.319702,1123.363281 
	C1131.661865,1107.110840 1154.734741,1096.398682 1181.270264,1089.971924 
	C1184.255493,1089.031616 1187.240723,1088.091309 1190.225830,1087.151001 
	C1190.098633,1086.637329 1189.971436,1086.123657 1189.844238,1085.609985 
	C1186.381226,1086.030640 1182.918091,1086.451294 1177.930542,1087.077148 
M664.959595,456.246643 
	C604.793640,514.748291 555.329651,581.109192 515.121460,654.877197 
	C477.543915,723.818909 463.656738,796.966858 469.488525,874.547485 
	C470.236359,884.495972 470.316925,894.712524 472.777527,904.271851 
	C479.136505,928.976074 481.970734,953.984863 482.181885,979.387451 
	C482.228241,984.964905 482.188660,990.543030 482.188660,996.339783 
	C485.172607,996.835571 487.088715,997.389954 489.016846,997.435547 
	C501.004852,997.718872 513.004333,998.286621 524.983765,998.023071 
	C567.142517,997.095581 608.911621,1001.081787 650.117065,1009.449890 
	C698.052246,1019.184875 745.971436,1029.257080 793.397156,1041.174194 
	C847.593445,1054.792725 901.758057,1057.066772 956.855774,1048.586060 
	C981.318970,1044.820679 1004.855286,1037.753052 1028.811523,1032.161743 
	C1113.117310,1012.485291 1198.686279,1002.799011 1285.142578,1000.244019 
	C1360.090454,998.029236 1435.010132,996.673462 1509.806274,1003.958130 
	C1553.964111,1008.258789 1597.701172,1015.029114 1640.415039,1027.135254 
	C1662.468872,1033.385742 1684.072510,1041.224121 1706.678223,1049.473999 
	C1722.479736,1056.503906 1738.392456,1063.295654 1754.056885,1070.618774 
	C1778.462280,1082.028198 1802.915771,1093.372437 1826.918823,1105.589355 
	C1839.585815,1112.036377 1851.343140,1120.271240 1863.989380,1127.990723 
	C1864.637695,1126.039551 1865.432373,1124.272827 1865.809814,1122.420776 
	C1875.619385,1074.279297 1886.274292,1026.285889 1894.810913,977.918701 
	C1899.581665,950.889099 1901.854736,923.291992 1903.329468,895.847290 
	C1904.504150,873.988342 1903.377319,851.938049 1902.135742,830.037109 
	C1901.011230,810.198364 1898.951416,790.364563 1896.259399,770.671326 
	C1886.292969,697.761841 1860.802246,630.521790 1821.739136,568.230591 
	C1787.225098,513.193298 1746.354370,463.536285 1698.823975,419.217468 
	C1648.849243,372.619354 1593.741943,333.314728 1533.541138,301.139771 
	C1515.350952,291.417908 1496.248535,283.351593 1478.342407,273.159058 
	C1411.132324,234.901428 1338.494629,215.570343 1261.841675,210.516296 
	C1219.905640,207.751282 1178.016479,210.209702 1136.470703,216.500031 
	C1050.214600,229.559891 968.703857,257.544281 890.889221,296.491028 
	C837.166565,323.379578 786.333313,355.040680 738.888245,391.972473 
	C713.440674,411.781219 688.428833,432.128601 664.959595,456.246643 
M1405.425049,1342.419922 
	C1429.343018,1318.582031 1439.511230,1289.723633 1436.422485,1256.245850 
	C1432.780396,1216.770264 1415.812256,1183.590820 1387.434814,1156.305298 
	C1354.968262,1125.088013 1315.501831,1107.776611 1271.591187,1099.986450 
	C1235.279419,1093.544189 1199.442383,1094.034180 1164.546631,1107.929199 
	C1136.117188,1119.249268 1110.837402,1134.721558 1094.193726,1161.300293 
	C1079.021851,1185.528442 1071.216064,1212.576660 1070.692993,1240.781128 
	C1069.975952,1279.444702 1087.125122,1311.063599 1116.489746,1335.396118 
	C1129.193604,1345.922974 1143.731201,1354.590332 1158.351807,1362.383789 
	C1202.129028,1385.719238 1248.557739,1397.707397 1298.619751,1392.383179 
	C1339.470459,1388.038574 1374.527344,1371.356567 1405.425049,1342.419922 
M776.993225,1164.288452 
	C773.962097,1151.361938 768.605713,1139.252441 758.489380,1130.737793 
	C749.949463,1123.549927 740.180725,1117.072754 729.898987,1112.861328 
	C709.026306,1104.311523 687.447449,1097.482544 666.142761,1089.992310 
	C656.234009,1086.508667 646.273804,1086.050293 635.807434,1087.953735 
	C592.043884,1095.912354 554.476196,1114.947144 525.941711,1149.588867 
	C508.319366,1170.983032 496.542511,1195.218506 493.368866,1223.342163 
	C491.253754,1242.085693 492.812988,1260.422974 495.626526,1278.918213 
	C500.710480,1312.338257 517.296875,1338.209351 546.403381,1355.028809 
	C588.643677,1379.437866 634.077637,1383.136719 679.768005,1374.475708 
	C683.218018,1363.603149 685.250610,1354.100220 689.173828,1345.455566 
	C698.338745,1325.260864 715.286316,1313.097778 734.992676,1304.508179 
	C743.472778,1300.812012 752.363586,1298.057617 760.855347,1294.953003 
	C780.307739,1253.562744 788.535034,1210.931885 776.993225,1164.288452 
M535.597473,1363.535156 
	C531.817932,1360.918823 528.038452,1358.302612 523.555908,1355.199585 
	C512.423828,1369.682861 502.893616,1384.536255 494.497437,1402.060913 
	C558.617432,1409.538696 621.067200,1417.728638 684.132935,1400.956421 
	C683.162048,1396.033936 682.413208,1392.237427 681.722595,1388.735962 
	C680.512817,1388.345459 679.850952,1387.885132 679.290710,1387.986572 
	C658.535950,1391.745239 637.677429,1392.194336 616.730408,1390.056396 
	C588.270203,1387.151855 561.276917,1379.703979 535.597473,1363.535156 
M521.727539,1134.754639 
	C546.589905,1107.477661 577.690796,1090.214966 612.635681,1079.122681 
	C570.432373,1070.454346 500.677399,1072.097778 483.820862,1078.590210 
	C485.801880,1105.491821 491.600250,1131.471558 504.221802,1156.355713 
	C510.057648,1149.105225 515.411499,1142.453613 521.727539,1134.754639 
M1611.732666,1075.107178 
	C1599.233154,1070.020630 1579.945923,1069.677002 1570.671021,1074.375732 
	C1576.039795,1087.544434 1597.850098,1094.847412 1609.067627,1087.016724 
	C1612.662109,1084.507446 1615.553101,1081.133789 1611.732666,1075.107178 
M259.609436,1067.936279 
	C269.536652,1068.373535 279.837616,1070.579834 289.137970,1062.243408 
	C280.810699,1051.747192 270.428101,1049.435669 258.394226,1049.021973 
	C258.394226,1055.338867 258.394226,1060.936035 259.609436,1067.936279 
z"/>
<path fill="#0F618B" opacity="1.000000" stroke="none" 
	d="
M916.937317,2250.000000 
	C917.865112,2226.144287 918.208252,2202.152100 923.446899,2178.621338 
	C930.469971,2147.075195 946.563843,2120.524170 972.008972,2101.510986 
	C1013.355347,2070.616211 1055.919800,2041.387207 1106.072876,2025.463989 
	C1151.757080,2010.959473 1197.103638,1995.381348 1242.508789,1980.009888 
	C1282.646973,1966.421387 1321.819702,1950.536743 1358.329102,1928.742676 
	C1383.890991,1913.483643 1407.494751,1895.652222 1428.531372,1874.486450 
	C1432.829712,1870.161621 1436.890625,1865.975952 1436.083618,1859.256226 
	C1497.548096,1833.754517 1552.302002,1798.945435 1599.760376,1751.719116 
	C1611.948486,1766.247681 1624.422852,1779.883545 1633.838013,1795.983276 
	C1641.192749,1808.559570 1640.352905,1822.038330 1639.221191,1835.782593 
	C1633.428467,1906.139282 1611.392334,1972.498901 1589.459717,2038.876343 
	C1576.874634,2076.964355 1558.764648,2112.624756 1540.455688,2148.161133 
	C1533.591553,2161.484131 1526.227173,2174.550293 1519.013794,2187.691162 
	C1516.960938,2191.430420 1514.636597,2195.020508 1511.934204,2199.515137 
	C1507.806519,2197.480225 1504.218628,2195.987549 1500.902588,2194.033447 
	C1470.406738,2176.064697 1442.487183,2154.408203 1414.146118,2133.348633 
	C1387.936646,2113.873047 1361.530396,2094.698975 1332.755127,2079.035156 
	C1300.797974,2061.639404 1267.336426,2049.312744 1230.579712,2047.681152 
	C1219.031494,2047.168579 1207.475586,2046.822388 1195.921021,2046.464844 
	C1192.346313,2046.354248 1189.949463,2048.357422 1189.966919,2051.775146 
	C1189.988770,2056.049072 1190.282715,2060.510010 1191.543457,2064.552246 
	C1194.910767,2075.347412 1198.329956,2086.181885 1202.673218,2096.607178 
	C1215.901978,2128.361816 1192.773926,2154.760010 1170.587524,2161.936035 
	C1163.701538,2164.163086 1156.372559,2165.537842 1149.151245,2166.119873 
	C1120.915527,2168.394775 1093.541260,2162.267334 1066.074951,2157.003906 
	C1050.733276,2154.063477 1035.275146,2151.730713 1019.870056,2149.120850 
	C1019.213989,2149.010010 1018.566345,2148.777832 1017.909424,2148.754883 
	C1013.910889,2148.613037 1010.455322,2149.527100 1009.779541,2154.173340 
	C1009.097534,2158.862305 1012.120361,2160.858643 1016.097046,2161.547119 
	C1020.676758,2162.339844 1025.357666,2162.557617 1029.928833,2163.387695 
	C1050.867188,2167.189453 1071.700317,2171.663330 1092.732300,2174.826416 
	C1109.137085,2177.293945 1125.771606,2179.379150 1142.316406,2179.473633 
	C1161.883545,2179.585693 1180.746582,2175.100098 1196.235718,2161.791748 
	C1208.509521,2151.245850 1217.204712,2138.174805 1219.040161,2121.993164 
	C1219.909180,2114.332520 1218.175903,2106.093994 1216.233887,2098.470947 
	C1213.943481,2089.480957 1210.105347,2080.889404 1207.031738,2072.092285 
	C1205.847046,2068.701416 1204.919067,2065.220947 1203.503418,2060.561035 
	C1216.267456,2059.230469 1228.041382,2059.436279 1239.804077,2060.817383 
	C1284.003540,2066.006836 1322.676636,2085.059082 1358.710693,2109.763672 
	C1387.819336,2129.720215 1415.781128,2151.341797 1444.660400,2171.643311 
	C1462.897705,2184.463867 1481.887939,2196.212891 1500.535522,2208.450195 
	C1503.039185,2210.093262 1505.534058,2211.750977 1507.996338,2213.454834 
	C1514.074585,2217.660889 1517.096313,2217.073486 1520.720215,2210.701172 
	C1525.823853,2201.727295 1530.877808,2192.723389 1535.849487,2183.675781 
	C1557.039795,2145.112305 1577.661743,2106.168213 1593.268799,2065.019531 
	C1605.530640,2032.690674 1615.483398,1999.458496 1625.730591,1966.401001 
	C1635.687378,1934.279907 1643.223999,1901.529541 1648.351318,1868.258057 
	C1648.446167,1867.641968 1648.933228,1867.086426 1649.736816,1865.544678 
	C1652.625854,1866.476807 1655.764282,1867.265625 1658.728760,1868.479614 
	C1699.184814,1885.047241 1735.658081,1907.950684 1768.390259,1936.955444 
	C1824.859863,1986.994629 1865.023926,2048.329102 1894.271973,2117.347412 
	C1910.829590,2156.419434 1922.898804,2196.840576 1931.234741,2238.407715 
	C1931.886353,2241.656494 1932.038696,2245.005859 1932.211426,2249.154297 
	C1593.958252,2250.000000 1255.916382,2250.000000 916.937317,2250.000000 
z"/>
<path fill="#0F618B" opacity="1.000000" stroke="none" 
	d="
M324.937317,2250.000000 
	C327.037567,2241.985352 329.772827,2233.839844 333.166626,2225.979004 
	C345.969513,2196.324219 358.244629,2166.410156 372.085754,2137.242432 
	C396.943573,2084.858398 427.563904,2036.200195 469.596893,1995.580322 
	C502.523743,1963.760010 540.453918,1940.456421 585.250061,1929.235474 
	C589.119690,1928.266235 593.028748,1927.449097 596.936035,1926.641602 
	C597.509888,1926.523071 598.176636,1926.854126 599.638855,1927.142700 
	C599.228455,1929.233521 599.050842,1931.408691 598.371155,1933.413574 
	C585.947876,1970.058350 576.662292,2007.496216 570.834534,2045.727051 
	C568.481934,2061.160645 567.524536,2076.808594 566.007812,2092.366455 
	C565.782654,2094.676270 565.637451,2097.087158 566.043335,2099.345703 
	C566.977661,2104.544678 571.113342,2106.536133 575.618652,2103.577881 
	C582.572754,2099.011230 589.123169,2093.835205 595.935669,2089.046875 
	C623.059448,2069.981445 651.625732,2053.663574 683.669495,2044.306030 
	C713.963867,2035.459473 744.022156,2034.746216 773.416931,2048.146240 
	C774.320374,2048.558105 775.228271,2048.998779 776.038147,2049.563721 
	C776.543884,2049.916260 776.869446,2050.527100 777.891479,2051.771729 
	C775.117004,2053.607910 772.493103,2055.486816 769.736816,2057.145508 
	C754.227905,2066.478760 739.795532,2077.223633 728.010986,2091.028320 
	C723.536194,2096.270020 719.565552,2102.302734 716.848145,2108.613281 
	C710.083984,2124.322021 715.531128,2139.263428 730.394409,2147.960693 
	C739.527954,2153.305420 749.679077,2155.281494 760.032959,2155.894775 
	C775.318848,2156.800049 790.634583,2157.196777 805.936035,2157.845703 
	C826.120178,2158.701660 845.697083,2161.817383 862.976074,2173.365723 
	C866.363708,2175.629883 869.772827,2176.384033 872.772827,2172.874023 
	C875.254333,2169.970215 874.284058,2166.030518 869.699158,2162.775146 
	C858.650574,2154.930664 846.194336,2149.925049 832.875244,2148.219238 
	C817.065918,2146.194336 801.092651,2145.422363 785.181213,2144.230469 
	C773.911316,2143.385986 762.596313,2143.041748 751.357849,2141.912598 
	C743.606689,2141.133789 736.488098,2138.308350 731.083130,2132.226807 
	C726.760742,2127.363281 724.510681,2121.804932 727.737061,2115.757568 
	C731.146240,2109.367432 734.674316,2102.771729 739.450806,2097.427979 
	C756.404053,2078.460938 778.046814,2065.965088 800.605164,2054.911621 
	C802.691650,2053.889160 804.997620,2053.204102 806.876770,2051.895996 
	C809.607483,2049.994629 811.142700,2046.832520 808.858887,2044.190308 
	C807.233765,2042.310181 802.825378,2040.207886 801.592407,2041.046631 
	C794.052734,2046.175781 788.544861,2041.505005 782.365845,2038.387329 
	C757.392700,2025.786743 730.865112,2023.111938 703.554565,2027.152466 
	C660.888611,2033.465210 624.543945,2054.185303 589.582581,2077.909912 
	C587.380737,2079.404053 585.230835,2080.976807 582.996338,2082.419434 
	C582.508789,2082.734131 581.761902,2082.647217 580.441772,2082.853516 
	C580.441772,2078.008301 579.957764,2073.173340 580.514160,2068.461426 
	C589.465393,1992.650635 612.400818,1921.001587 645.161255,1852.302368 
	C646.017395,1850.506958 647.028870,1848.777222 648.089111,1847.093140 
	C648.405334,1846.590820 649.135132,1846.348877 650.618652,1845.357300 
	C696.400085,1873.525269 745.734009,1894.635620 799.157349,1906.491699 
	C800.041687,1908.716553 801.123596,1910.766968 801.684753,1912.951294 
	C809.910034,1944.969482 826.455872,1972.372192 847.998352,1997.066162 
	C868.460388,2020.521606 892.189636,2040.420166 916.141785,2060.090088 
	C930.025391,2071.491699 943.893738,2082.912109 958.405029,2094.846924 
	C956.434448,2097.266846 955.031433,2099.394043 953.244080,2101.124023 
	C926.256714,2127.250488 911.402039,2159.208008 907.796509,2196.408691 
	C906.128784,2213.615967 905.187744,2230.893799 903.958618,2249.069824 
	C711.291565,2250.000000 518.583069,2250.000000 324.937317,2250.000000 
z"/>
<path fill="#385836" opacity="1.000000" stroke="none" 
	d="
M418.685852,996.208740 
	C409.657990,996.850525 399.745544,997.438782 388.908417,997.874084 
	C391.073334,997.151917 394.150757,996.189941 397.254913,996.093933 
	C404.096558,995.882568 410.951630,996.108032 418.685852,996.208740 
z"/>
<path fill="#426040" opacity="1.000000" stroke="none" 
	d="
M207.151886,1102.617432 
	C207.806396,1108.812744 207.912598,1115.596558 207.891083,1123.318115 
	C204.585617,1117.393066 206.141220,1110.269531 207.151886,1102.617432 
z"/>
<path fill="#FDF243" opacity="1.000000" stroke="none" 
	d="
M1412.270508,1872.294312 
	C1384.519653,1899.331787 1352.151245,1919.520874 1317.454834,1936.268799 
	C1276.557007,1956.010132 1233.357544,1969.566650 1190.454956,1984.006348 
	C1150.731079,1997.376221 1111.270508,2011.536255 1071.783813,2025.600586 
	C1048.683105,2033.828735 1028.154053,2046.896484 1008.095337,2060.720947 
	C995.205017,2069.604980 982.381897,2078.586426 969.177917,2087.768311 
	C935.213562,2057.760986 898.031250,2031.743896 866.775269,1998.860718 
	C843.785828,1974.674683 824.909607,1947.931396 815.493164,1915.404907 
	C814.576355,1912.237915 813.642578,1908.965332 813.496643,1905.706787 
	C813.096130,1896.761841 813.118774,1896.759277 804.573120,1894.518921 
	C788.811096,1890.386597 772.787109,1886.974854 757.411011,1881.694336 
	C645.181458,1843.151123 559.639099,1772.256714 501.876556,1668.494385 
	C472.733368,1616.142578 461.230042,1559.725342 466.295319,1499.997681 
	C466.794952,1494.106323 467.895081,1488.265991 468.762054,1482.076660 
	C484.082886,1485.122070 498.636627,1488.666626 513.394836,1490.789673 
	C533.488098,1493.680298 553.770386,1495.229004 573.913452,1497.807251 
	C622.931396,1504.081299 669.135437,1491.646973 715.043640,1477.043579 
	C725.452454,1473.732544 735.818604,1470.287354 747.474487,1466.490112 
	C766.069519,1473.758545 786.740723,1478.388428 808.341675,1478.174927 
	C810.673889,1478.151978 813.008118,1478.106567 815.336792,1477.984375 
	C819.658020,1477.757568 822.375427,1475.672852 822.024048,1471.117920 
	C821.707397,1467.012817 818.799561,1465.821045 815.015137,1465.650635 
	C805.711731,1465.232056 796.315186,1465.302734 787.138306,1463.945312 
	C759.529419,1459.861450 734.306091,1450.190430 714.312622,1429.804810 
	C695.058472,1410.172974 690.458740,1386.511597 696.855469,1360.511353 
	C700.420593,1346.020508 709.666199,1335.085571 721.736938,1326.550537 
	C740.146973,1313.533447 761.211487,1307.591187 783.080078,1304.094849 
	C793.257202,1302.467651 803.536133,1301.180054 813.816956,1300.616211 
	C819.436340,1300.308105 822.023865,1297.831421 824.172668,1293.126343 
	C834.889526,1269.660645 839.594543,1245.059326 838.697266,1219.341919 
	C838.476929,1213.025635 838.042053,1206.716797 837.694885,1200.200439 
	C843.869690,1194.201050 851.321350,1190.589355 859.493896,1188.705444 
	C871.805298,1185.867676 883.025818,1188.825928 891.433960,1198.200073 
	C898.957642,1206.587769 905.829956,1215.699219 911.993164,1225.141602 
	C930.092163,1252.870728 942.873779,1283.309082 956.203430,1313.478149 
	C968.443542,1341.181396 980.949036,1368.783081 994.117310,1396.052979 
	C999.739441,1407.695801 1006.929321,1418.656616 1014.117188,1429.454590 
	C1041.664917,1470.838135 1079.377197,1496.906006 1128.761963,1506.024292 
	C1162.970215,1512.340454 1197.466675,1514.636597 1232.092896,1516.051758 
	C1295.846191,1518.657471 1359.337280,1515.000244 1422.626587,1507.497559 
	C1456.554688,1503.475464 1485.426880,1488.622070 1510.060181,1465.120483 
	C1534.305176,1441.989136 1551.950317,1414.344971 1565.844238,1384.123901 
	C1582.891968,1347.042847 1593.725952,1307.903442 1603.815308,1268.531738 
	C1606.955688,1256.276978 1609.596191,1243.888184 1612.975464,1231.702148 
	C1615.979614,1220.869263 1621.218384,1211.976196 1633.106079,1208.041504 
	C1645.594116,1203.908325 1657.830322,1202.373535 1670.177734,1207.453857 
	C1680.631958,1211.755249 1690.856689,1216.614380 1701.668945,1222.602661 
	C1701.090332,1247.246216 1705.058105,1269.831177 1710.930786,1292.235107 
	C1712.253052,1297.279785 1713.963257,1301.473022 1718.385254,1304.314209 
	C1717.673340,1308.259033 1718.149292,1311.765747 1722.445801,1313.357788 
	C1726.340210,1314.800781 1728.639038,1312.015259 1731.003662,1309.675903 
	C1753.822632,1287.101929 1780.032349,1269.909912 1810.445679,1259.273193 
	C1815.601807,1257.469849 1820.632935,1256.066284 1825.915771,1258.187866 
	C1832.359619,1260.775513 1836.948242,1259.238525 1838.866577,1252.537598 
	C1873.818726,1248.290771 1903.270020,1257.439819 1926.900879,1283.603271 
	C1947.629517,1306.553223 1952.827637,1333.511108 1946.802002,1362.738403 
	C1937.780151,1406.499268 1915.208496,1442.779175 1883.136963,1473.546997 
	C1872.825317,1483.439453 1863.342163,1494.191650 1853.385620,1504.458984 
	C1838.094849,1520.227051 1823.401123,1536.658813 1807.210693,1551.447876 
	C1787.447998,1569.499756 1764.194458,1581.212769 1737.191528,1585.161255 
	C1712.734497,1588.737671 1692.813721,1581.648193 1678.805542,1561.309448 
	C1671.116577,1550.145996 1665.348511,1537.656738 1658.767334,1525.736084 
	C1657.486450,1523.416016 1656.968872,1520.391357 1655.149292,1518.735718 
	C1653.498535,1517.234009 1650.364502,1516.230591 1648.222046,1516.666504 
	C1645.015747,1517.318848 1643.575439,1520.248535 1644.365479,1523.694946 
	C1644.659180,1524.975342 1645.270996,1526.189575 1645.794678,1527.409546 
	C1655.442383,1549.884644 1666.265015,1571.570679 1686.465698,1587.184204 
	C1673.612549,1627.234863 1654.828613,1664.047241 1629.687134,1697.560303 
	C1578.802490,1765.389160 1512.540894,1813.147949 1434.940308,1845.872559 
	C1386.465576,1866.314575 1335.961304,1878.977661 1283.580688,1884.075439 
	C1282.255859,1884.204346 1280.892578,1884.170044 1279.612305,1884.480469 
	C1275.998657,1885.356323 1273.545776,1887.373047 1274.015991,1891.462891 
	C1274.493164,1895.614502 1277.454712,1897.135010 1281.118896,1896.797974 
	C1291.061768,1895.883545 1301.031982,1895.023560 1310.893311,1893.505127 
	C1344.836548,1888.278931 1378.125977,1880.323730 1411.354736,1869.533203 
	C1412.225098,1870.967773 1412.247803,1871.631104 1412.270508,1872.294312 
M820.874146,1697.695679 
	C829.802063,1697.159424 838.729980,1696.623291 846.153381,1696.177490 
	C848.745728,1701.588989 850.221313,1706.330444 852.981506,1710.141357 
	C864.413025,1725.924194 880.590576,1733.745728 899.525818,1736.107056 
	C927.302246,1739.570557 953.006958,1732.861572 977.243103,1719.503174 
	C979.768860,1718.111084 982.320312,1716.765625 984.617004,1715.529297 
	C987.896362,1725.384277 990.424988,1734.731812 994.137390,1743.582764 
	C997.069580,1750.573608 1001.271057,1757.068848 1005.275574,1763.557861 
	C1007.330566,1766.887939 1011.243713,1767.569702 1013.881470,1765.047363 
	C1015.533569,1763.467407 1015.616943,1759.850586 1015.649658,1757.138550 
	C1015.666382,1755.751099 1013.830017,1754.429932 1013.163147,1752.931152 
	C1008.852661,1743.242676 1003.600464,1733.814575 1000.658325,1723.717896 
	C997.329407,1712.293823 995.898315,1700.290039 994.020874,1688.478149 
	C992.454712,1678.625000 991.546082,1668.669189 990.131592,1658.789429 
	C989.331604,1653.201660 986.713074,1650.646362 982.829712,1651.330078 
	C978.156738,1652.152832 977.328369,1655.601685 977.755432,1659.620850 
	C978.142029,1663.259766 978.721313,1666.877930 979.125854,1670.515259 
	C980.118652,1679.442383 981.059692,1688.375122 982.197754,1698.941406 
	C967.110046,1688.455688 952.213440,1682.655884 936.041382,1681.791504 
	C917.145142,1680.781250 898.158020,1680.525635 879.242920,1681.071411 
	C859.627380,1681.637451 840.066772,1683.930298 820.452332,1684.768555 
	C802.740601,1685.525391 785.246704,1684.126587 768.694946,1676.563721 
	C745.735168,1666.072998 742.080688,1646.453247 751.515076,1625.916870 
	C753.576538,1621.429321 756.673279,1617.381470 759.549133,1613.312134 
	C764.158813,1606.789307 769.073730,1600.481812 773.667236,1593.948120 
	C775.366333,1591.531372 776.971069,1588.867554 777.811707,1586.073608 
	C778.868103,1582.562622 777.730286,1579.290161 773.929565,1577.999023 
	C770.391174,1576.796753 767.731750,1577.844238 765.698914,1581.446167 
	C762.611084,1586.917236 758.974426,1592.085449 755.456238,1597.305176 
	C750.808594,1604.200806 745.563843,1610.741577 741.425232,1617.924194 
	C725.292908,1645.923096 734.915771,1675.272583 764.297180,1688.410278 
	C767.927002,1690.033447 771.714661,1691.348755 775.511841,1692.544312 
	C789.651550,1696.995850 804.233521,1697.889526 820.874146,1697.695679 
M1795.912109,1396.390137 
	C1798.762817,1409.858154 1796.953369,1422.850830 1791.934937,1435.520508 
	C1791.325195,1437.060059 1790.036621,1438.810303 1790.367920,1440.137085 
	C1790.950806,1442.472412 1792.043335,1445.557495 1793.853271,1446.458618 
	C1795.600464,1447.328369 1799.106201,1446.552368 1800.774170,1445.192505 
	C1802.649048,1443.664185 1803.623779,1440.775024 1804.486938,1438.302368 
	C1812.683838,1414.819458 1813.231201,1392.057251 1796.755859,1370.240845 
	C1805.953735,1365.833740 1814.406372,1361.165771 1823.312500,1357.645020 
	C1841.837524,1350.321411 1860.551147,1347.209473 1878.951538,1358.350342 
	C1882.400146,1360.438477 1885.670166,1359.819580 1887.615479,1356.580933 
	C1889.800415,1352.943237 1888.848999,1349.189697 1884.905884,1347.283813 
	C1879.256836,1344.553223 1873.532959,1341.636230 1867.509888,1340.084717 
	C1849.559937,1335.461182 1832.322388,1339.641846 1815.959106,1346.741943 
	C1781.227051,1361.812134 1753.696777,1386.024414 1731.396973,1416.290283 
	C1727.301636,1421.848511 1724.386841,1428.355591 1721.459839,1434.671509 
	C1719.061890,1439.845703 1720.206299,1443.114624 1723.955688,1444.758057 
	C1727.588867,1446.350708 1730.614624,1444.941650 1732.990845,1439.506104 
	C1740.631714,1422.027100 1752.694336,1407.996216 1766.713257,1395.453003 
	C1771.426147,1391.236206 1776.287842,1387.179565 1781.195923,1383.190430 
	C1782.882690,1381.819336 1784.917358,1380.876343 1787.916260,1379.055786 
	C1790.698608,1384.732300 1793.142456,1389.718140 1795.912109,1396.390137 
M880.288574,1792.180054 
	C887.442505,1786.819580 887.268921,1783.137573 879.789307,1779.738159 
	C872.542786,1776.444702 864.818420,1773.830811 858.276062,1769.462402 
	C851.479980,1764.924561 845.079773,1759.273315 839.899475,1752.965210 
	C833.168152,1744.767822 833.875122,1736.721802 840.154968,1728.332764 
	C841.547791,1726.471924 843.786926,1724.938721 844.401917,1722.885010 
	C845.059998,1720.687378 845.166870,1716.885986 843.880310,1715.885376 
	C841.998718,1714.421753 838.630066,1714.417603 835.957336,1714.618286 
	C834.658203,1714.715942 833.432190,1716.624146 832.288330,1717.822632 
	C819.472656,1731.250488 819.000977,1748.768066 831.730347,1763.753174 
	C844.149292,1778.372925 860.158142,1787.519409 880.288574,1792.180054 
z"/>
<path fill="#FEF343" opacity="1.000000" stroke="none" 
	d="
M1705.879639,1048.344971 
	C1684.072510,1041.224121 1662.468872,1033.385742 1640.415039,1027.135254 
	C1597.701172,1015.029114 1553.964111,1008.258789 1509.806274,1003.958130 
	C1435.010132,996.673462 1360.090454,998.029236 1285.142578,1000.244019 
	C1198.686279,1002.799011 1113.117310,1012.485291 1028.811523,1032.161743 
	C1004.855286,1037.753052 981.318970,1044.820679 956.855774,1048.586060 
	C901.758057,1057.066772 847.593445,1054.792725 793.397156,1041.174194 
	C745.971436,1029.257080 698.052246,1019.184875 650.117065,1009.449890 
	C608.911621,1001.081787 567.142517,997.095581 524.983765,998.023071 
	C513.004333,998.286621 501.004852,997.718872 489.016846,997.435547 
	C487.088715,997.389954 485.172607,996.835571 482.188660,996.339783 
	C482.188660,990.543030 482.228241,984.964905 482.181885,979.387451 
	C481.970734,953.984863 479.136505,928.976074 472.777527,904.271851 
	C470.316925,894.712524 470.236359,884.495972 469.488525,874.547485 
	C463.656738,796.966858 477.543915,723.818909 515.121460,654.877197 
	C555.329651,581.109192 604.793640,514.748291 666.279785,456.200562 
	C668.337341,457.175964 669.524292,458.108734 669.745850,459.231964 
	C674.533508,483.505066 685.038513,505.090576 699.824158,524.808472 
	C717.939575,548.966919 742.841064,562.663086 770.754761,572.157593 
	C799.059082,581.784912 828.555359,584.396118 857.947449,585.501099 
	C887.132629,586.598267 916.439819,584.635620 945.686829,583.782654 
	C953.955322,583.541565 962.231140,582.743774 970.449646,581.753784 
	C990.492310,579.339539 1010.468384,576.337219 1030.536499,574.178650 
	C1053.260986,571.734314 1076.053467,569.916321 1098.822998,567.899902 
	C1107.735596,567.110657 1116.659790,566.428284 1125.589233,565.861511 
	C1146.433472,564.538574 1167.283203,562.284912 1188.132446,562.265625 
	C1231.713623,562.225281 1275.296143,563.382507 1318.877930,564.060730 
	C1320.540161,564.086609 1322.204346,564.200500 1323.860840,564.349365 
	C1337.048950,565.534119 1350.225830,566.860962 1363.425537,567.897766 
	C1374.999390,568.806885 1386.604980,569.307678 1398.183960,570.158936 
	C1406.113159,570.741882 1414.026489,571.560913 1421.936646,572.374512 
	C1433.127808,573.525635 1444.300781,574.858215 1455.497925,575.945190 
	C1464.736206,576.842102 1474.017578,577.312195 1483.245239,578.296143 
	C1499.698486,580.050598 1516.098022,582.377930 1532.578735,583.768555 
	C1538.289551,584.250488 1540.547974,586.420288 1542.090942,591.682251 
	C1548.351807,613.034912 1554.480957,634.460999 1561.861450,655.436768 
	C1565.903198,666.923523 1571.635620,677.985168 1577.850952,688.502686 
	C1591.614380,711.792847 1625.463257,718.131409 1647.625854,707.263855 
	C1661.866699,700.280762 1673.477539,689.882690 1685.270142,679.651672 
	C1691.418945,674.316956 1697.186768,668.435547 1705.245483,664.829651 
	C1707.407471,673.188049 1704.504028,679.826782 1702.329224,686.800293 
	C1694.653198,711.414307 1693.539795,737.044006 1692.355713,762.497864 
	C1691.664307,777.357483 1693.429810,792.333557 1694.159668,807.253845 
	C1694.239746,808.888855 1694.815063,810.495300 1695.104614,812.124939 
	C1698.058838,828.752258 1701.264038,845.340454 1703.875122,862.021606 
	C1706.587158,879.348633 1708.047729,896.892883 1711.289307,914.109863 
	C1714.857300,933.061890 1718.023804,952.067627 1717.714111,971.295471 
	C1717.448120,987.823608 1715.836060,1004.407471 1713.580933,1020.796326 
	C1712.293091,1030.155273 1708.528931,1039.173340 1705.879639,1048.344971 
z"/>
<path fill="#F3C275" opacity="1.000000" stroke="none" 
	d="
M1706.278931,1048.909424 
	C1708.528931,1039.173340 1712.293091,1030.155273 1713.580933,1020.796326 
	C1715.836060,1004.407471 1717.448120,987.823608 1717.714111,971.295471 
	C1718.023804,952.067627 1714.857300,933.061890 1711.289307,914.109863 
	C1708.047729,896.892883 1706.587158,879.348633 1703.875122,862.021606 
	C1701.264038,845.340454 1698.058838,828.752258 1695.104614,812.124939 
	C1694.815063,810.495300 1694.239746,808.888855 1694.159668,807.253845 
	C1693.429810,792.333557 1691.664307,777.357483 1692.355713,762.497864 
	C1693.539795,737.044006 1694.653198,711.414307 1702.329224,686.800293 
	C1704.504028,679.826782 1707.407471,673.188049 1705.245483,664.829651 
	C1697.186768,668.435547 1691.418945,674.316956 1685.270142,679.651672 
	C1673.477539,689.882690 1661.866699,700.280762 1647.625854,707.263855 
	C1625.463257,718.131409 1591.614380,711.792847 1577.850952,688.502686 
	C1571.635620,677.985168 1565.903198,666.923523 1561.861450,655.436768 
	C1554.480957,634.460999 1548.351807,613.034912 1542.090942,591.682251 
	C1540.547974,586.420288 1538.289551,584.250488 1532.578735,583.768555 
	C1516.098022,582.377930 1499.698486,580.050598 1483.245239,578.296143 
	C1474.017578,577.312195 1464.736206,576.842102 1455.497925,575.945190 
	C1444.300781,574.858215 1433.127808,573.525635 1421.936646,572.374512 
	C1414.026489,571.560913 1406.113159,570.741882 1398.183960,570.158936 
	C1386.604980,569.307678 1374.999390,568.806885 1363.425537,567.897766 
	C1350.225830,566.860962 1337.048950,565.534119 1323.860840,564.349365 
	C1322.204346,564.200500 1320.540161,564.086609 1318.877930,564.060730 
	C1275.296143,563.382507 1231.713623,562.225281 1188.132446,562.265625 
	C1167.283203,562.284912 1146.433472,564.538574 1125.589233,565.861511 
	C1116.659790,566.428284 1107.735596,567.110657 1098.822998,567.899902 
	C1076.053467,569.916321 1053.260986,571.734314 1030.536499,574.178650 
	C1010.468384,576.337219 990.492310,579.339539 970.449646,581.753784 
	C962.231140,582.743774 953.955322,583.541565 945.686829,583.782654 
	C916.439819,584.635620 887.132629,586.598267 857.947449,585.501099 
	C828.555359,584.396118 799.059082,581.784912 770.754761,572.157593 
	C742.841064,562.663086 717.939575,548.966919 699.824158,524.808472 
	C685.038513,505.090576 674.533508,483.505066 669.745850,459.231964 
	C669.524292,458.108734 668.337341,457.175964 666.900024,455.893311 
	C688.428833,432.128601 713.440674,411.781219 738.888245,391.972473 
	C786.333313,355.040680 837.166565,323.379578 890.889221,296.491028 
	C968.703857,257.544281 1050.214600,229.559891 1136.470703,216.500031 
	C1178.016479,210.209702 1219.905640,207.751282 1261.841675,210.516296 
	C1338.494629,215.570343 1411.132324,234.901428 1478.342407,273.159058 
	C1496.248535,283.351593 1515.350952,291.417908 1533.541138,301.139771 
	C1593.741943,333.314728 1648.849243,372.619354 1698.823975,419.217468 
	C1746.354370,463.536285 1787.225098,513.193298 1821.739136,568.230591 
	C1860.802246,630.521790 1886.292969,697.761841 1896.259399,770.671326 
	C1898.951416,790.364563 1901.011230,810.198364 1902.135742,830.037109 
	C1903.377319,851.938049 1904.504150,873.988342 1903.329468,895.847290 
	C1901.854736,923.291992 1899.581665,950.889099 1894.810913,977.918701 
	C1886.274292,1026.285889 1875.619385,1074.279297 1865.809814,1122.420776 
	C1865.432373,1124.272827 1864.637695,1126.039551 1863.989380,1127.990723 
	C1851.343140,1120.271240 1839.585815,1112.036377 1826.918823,1105.589355 
	C1802.915771,1093.372437 1778.462280,1082.028198 1754.056885,1070.618774 
	C1738.392456,1063.295654 1722.479736,1056.503906 1706.278931,1048.909424 
M1304.229004,464.745209 
	C1290.925659,450.618652 1279.611938,435.017639 1270.340698,418.000031 
	C1256.314575,392.254883 1246.746338,365.223358 1247.716919,335.340546 
	C1247.749268,334.343109 1248.098511,332.997131 1247.598999,332.405884 
	C1245.823730,330.304840 1244.002319,327.316406 1241.716919,326.801727 
	C1238.702393,326.122864 1236.164795,328.518585 1235.789062,332.064850 
	C1235.614258,333.715271 1235.666992,335.389893 1235.618896,337.053589 
	C1235.212524,351.126892 1236.785645,365.046326 1240.994263,378.414673 
	C1262.972168,448.226685 1307.028320,498.928345 1373.523926,529.750610 
	C1392.578491,538.582764 1412.933472,541.809143 1433.817505,540.213867 
	C1442.353394,539.561768 1450.848755,537.510681 1459.182983,535.390015 
	C1464.797729,533.961365 1466.716553,530.537354 1465.112427,526.894165 
	C1463.260498,522.688049 1459.927979,522.283691 1456.013062,523.808289 
	C1455.401245,524.046570 1454.698730,524.040466 1454.063354,524.231567 
	C1430.567261,531.298950 1407.433838,529.515198 1384.672852,521.108826 
	C1353.407593,509.561554 1327.701416,489.949707 1304.229004,464.745209 
M1517.224243,463.823151 
	C1539.560059,489.099670 1559.345337,516.126648 1573.183594,547.076172 
	C1583.008545,569.049438 1589.789062,591.877991 1590.245972,616.196716 
	C1590.400269,624.404724 1590.238281,632.618286 1590.290894,640.828796 
	C1590.315796,644.710510 1590.830322,648.293213 1596.021118,648.355347 
	C1600.929321,648.414124 1602.320679,645.326111 1602.343750,641.236023 
	C1602.444458,623.303284 1602.897827,605.386292 1599.164185,587.631104 
	C1591.419678,550.802124 1574.474243,518.336853 1552.622803,488.172791 
	C1522.794067,446.996857 1485.873535,412.364532 1449.674683,377.078003 
	C1448.504395,375.937195 1447.123413,374.410278 1445.712891,374.259827 
	C1443.617920,374.036377 1440.724731,374.192413 1439.439575,375.466400 
	C1438.136108,376.758575 1437.615112,379.814911 1438.141968,381.712708 
	C1438.702637,383.733002 1440.774048,385.420135 1442.393677,387.045624 
	C1449.677002,394.355133 1457.157715,401.471039 1464.339966,408.877319 
	C1481.705811,426.785004 1498.944580,444.815887 1517.224243,463.823151 
M893.896729,436.572998 
	C892.506714,428.092072 890.776367,419.648376 889.844116,411.117432 
	C889.204041,405.260071 889.787842,399.278015 889.605896,393.358429 
	C889.480652,389.284882 886.970093,387.407715 883.033142,387.557770 
	C879.426086,387.695190 877.838074,389.768860 877.598694,393.346466 
	C875.549377,423.980469 881.757874,452.183441 901.778564,476.383270 
	C916.384949,494.038605 935.231750,505.640594 956.259644,513.828308 
	C977.717224,522.183289 1000.043335,526.563599 1023.045715,528.604187 
	C1055.022095,531.440796 1086.602661,529.635620 1118.065063,523.819885 
	C1122.296997,523.037659 1125.970093,521.554932 1126.060181,516.543274 
	C1126.125610,512.892151 1122.634155,511.223938 1116.746094,511.730286 
	C1115.754639,511.815552 1114.779663,512.079895 1113.789429,512.195435 
	C1097.681885,514.075684 1081.617676,516.649902 1065.455444,517.672363 
	C1030.635742,519.875061 996.420349,515.871460 963.629150,503.602509 
	C931.503845,491.582733 906.017151,471.984802 893.896729,436.572998 
M1116.604126,464.374054 
	C1146.727661,490.966736 1180.549805,510.877777 1219.676636,521.044373 
	C1223.967773,522.159363 1228.579102,522.042297 1232.920654,522.484314 
	C1234.582153,512.743713 1234.391602,511.966644 1227.538086,510.477173 
	C1206.855225,505.982330 1187.620972,497.875458 1169.395996,487.333588 
	C1135.477173,467.714081 1106.458374,442.676300 1085.187378,409.409668 
	C1069.603516,385.037445 1060.479980,358.672485 1061.875610,329.300293 
	C1061.954102,327.647705 1062.564941,325.406189 1061.746704,324.457092 
	C1060.197266,322.659760 1057.880493,320.752502 1055.708496,320.520660 
	C1054.124146,320.351501 1051.731689,322.468323 1050.679321,324.171509 
	C1049.738037,325.695160 1050.078857,328.043396 1049.954102,330.034088 
	C1048.856079,347.558411 1051.861450,364.489197 1057.676392,380.942749 
	C1069.289429,413.802490 1090.008789,440.343140 1116.604126,464.374054 
M1769.203491,631.845337 
	C1765.110474,620.972046 1761.261597,609.997803 1756.821777,599.267944 
	C1754.595947,593.888489 1750.264282,592.037415 1746.845337,594.269958 
	C1742.808838,596.905701 1744.134033,600.516052 1745.751343,603.988159 
	C1745.891846,604.289917 1745.998291,604.607422 1746.138794,604.909241 
	C1763.121704,641.380676 1768.236572,679.638245 1764.410278,719.528564 
	C1761.823608,746.494568 1756.007690,772.619141 1746.739502,797.973999 
	C1742.066772,810.757141 1736.582031,823.247375 1731.325195,835.811768 
	C1728.311768,843.013733 1728.360596,846.303345 1731.986084,847.956238 
	C1735.949341,849.763245 1738.968384,848.012939 1742.085938,841.328003 
	C1746.017334,832.897827 1749.814331,824.390930 1753.287231,815.763367 
	C1767.288208,780.980652 1775.471069,744.793091 1777.579834,707.409424 
	C1778.989746,682.415894 1776.036621,657.667664 1769.203491,631.845337 
M886.312622,531.636658 
	C876.383545,531.127136 866.386780,531.180969 856.538818,529.996826 
	C832.226624,527.073547 809.053528,520.250549 788.140015,507.141876 
	C774.664795,498.695465 763.659790,487.744629 756.936768,473.036102 
	C750.606018,459.185791 750.642395,444.689819 752.904114,430.020386 
	C753.308105,427.400177 753.879578,424.791473 754.583191,422.235107 
	C755.645630,418.374817 754.409668,415.455811 750.733093,414.258209 
	C746.088684,412.745422 743.981750,415.953491 742.891052,419.739471 
	C738.865784,433.712067 738.181702,447.975952 740.921326,462.172699 
	C745.478577,485.788696 759.714050,502.939331 779.256226,515.840759 
	C809.941406,536.098633 844.547546,542.664429 880.593323,543.709229 
	C882.582642,543.766846 884.870239,544.189575 886.499207,543.387146 
	C888.653687,542.325806 891.127869,540.557068 891.959229,538.487610 
	C893.173828,535.464294 891.895752,532.590942 886.312622,531.636658 
M1806.900635,919.968201 
	C1810.900757,908.011230 1815.052979,896.101746 1818.807129,884.068115 
	C1819.912476,880.524902 1819.891113,876.630310 1820.378052,872.957703 
	C1810.548828,871.447083 1810.502686,871.430786 1807.747070,879.240601 
	C1800.570312,899.581055 1793.862549,920.100525 1786.117188,940.221191 
	C1781.961914,951.015869 1776.097168,961.157471 1770.913086,971.548523 
	C1768.995728,975.392029 1769.162231,978.845764 1773.052002,981.004578 
	C1776.711426,983.035400 1779.354370,980.781128 1781.344971,977.771912 
	C1782.442139,976.113037 1783.585205,974.438721 1784.368530,972.624939 
	C1791.728271,955.581543 1799.014771,938.506531 1806.900635,919.968201 
z"/>
<path fill="#FEFEFE" opacity="1.000000" stroke="none" 
	d="
M1404.922852,1342.922241 
	C1374.527344,1371.356567 1339.470459,1388.038574 1298.619751,1392.383179 
	C1248.557739,1397.707397 1202.129028,1385.719238 1158.351807,1362.383789 
	C1143.731201,1354.590332 1129.193604,1345.922974 1116.489746,1335.396118 
	C1087.125122,1311.063599 1069.975952,1279.444702 1070.692993,1240.781128 
	C1071.216064,1212.576660 1079.021851,1185.528442 1094.193726,1161.300293 
	C1110.837402,1134.721558 1136.117188,1119.249268 1164.546631,1107.929199 
	C1199.442383,1094.034180 1235.279419,1093.544189 1271.591187,1099.986450 
	C1315.501831,1107.776611 1354.968262,1125.088013 1387.434814,1156.305298 
	C1415.812256,1183.590820 1432.780396,1216.770264 1436.422485,1256.245850 
	C1439.511230,1289.723633 1429.343018,1318.582031 1404.922852,1342.922241 
M1250.805542,1228.219727 
	C1252.945923,1229.785278 1254.958984,1231.573853 1257.247070,1232.880981 
	C1275.041626,1243.046875 1297.675171,1235.654907 1306.014404,1217.032715 
	C1314.178833,1198.800659 1305.042480,1177.038696 1286.383057,1170.272949 
	C1267.133911,1163.293335 1245.910767,1174.247192 1240.914795,1194.086548 
	C1237.763916,1206.598877 1240.819214,1217.767944 1250.805542,1228.219727 
z"/>
<path fill="#FEFEFE" opacity="1.000000" stroke="none" 
	d="
M777.258545,1165.064453 
	C788.535034,1210.931885 780.307739,1253.562744 760.855347,1294.953003 
	C752.363586,1298.057617 743.472778,1300.812012 734.992676,1304.508179 
	C715.286316,1313.097778 698.338745,1325.260864 689.173828,1345.455566 
	C685.250610,1354.100220 683.218018,1363.603149 679.768005,1374.475708 
	C634.077637,1383.136719 588.643677,1379.437866 546.403381,1355.028809 
	C517.296875,1338.209351 500.710480,1312.338257 495.626526,1278.918213 
	C492.812988,1260.422974 491.253754,1242.085693 493.368866,1223.342163 
	C496.542511,1195.218506 508.319366,1170.983032 525.941711,1149.588867 
	C554.476196,1114.947144 592.043884,1095.912354 635.807434,1087.953735 
	C646.273804,1086.050293 656.234009,1086.508667 666.142761,1089.992310 
	C687.447449,1097.482544 709.026306,1104.311523 729.898987,1112.861328 
	C740.180725,1117.072754 749.949463,1123.549927 758.489380,1130.737793 
	C768.605713,1139.252441 773.962097,1151.361938 777.258545,1165.064453 
M733.537048,1205.449585 
	C733.859802,1202.484619 734.427734,1199.522705 734.465149,1196.554199 
	C734.692749,1178.485352 721.749390,1163.585327 704.237610,1161.603882 
	C685.584656,1159.493286 669.324219,1170.913452 664.900269,1189.231079 
	C660.762878,1206.362671 670.223755,1224.093750 686.838989,1230.124634 
	C707.566467,1237.648071 727.800781,1224.856689 733.537048,1205.449585 
z"/>
<path fill="#FAEF42" opacity="1.000000" stroke="none" 
	d="
M1250.009155,1082.013550 
	C1286.273682,1079.444946 1322.539429,1079.092651 1358.805298,1081.977173 
	C1397.122437,1085.024536 1434.552002,1092.681030 1471.229736,1104.022461 
	C1476.243042,1105.572754 1481.026611,1108.187744 1485.553345,1110.912964 
	C1491.981567,1114.782837 1496.198730,1120.296997 1498.747559,1127.729492 
	C1514.257324,1172.956421 1516.512939,1218.907227 1507.137939,1265.578369 
	C1500.819336,1297.033447 1491.785522,1327.587891 1476.057495,1355.811523 
	C1468.560425,1369.264771 1459.622803,1381.649170 1448.489502,1392.368286 
	C1429.783325,1410.378662 1407.556763,1420.167725 1381.596802,1422.401733 
	C1367.042969,1423.654175 1352.661621,1426.795532 1338.150391,1428.683472 
	C1306.389282,1432.815674 1274.449829,1434.556152 1242.479370,1432.854614 
	C1213.239990,1431.298340 1184.025269,1428.921997 1154.877075,1426.105957 
	C1125.059570,1423.224854 1099.291870,1410.970825 1077.705566,1390.056152 
	C1053.011597,1366.130615 1035.950195,1337.555908 1025.833130,1304.805908 
	C1019.159973,1283.204102 1011.721008,1261.790771 1008.789673,1239.203491 
	C1005.360046,1212.776611 1005.606201,1186.639771 1015.947876,1161.573242 
	C1018.302612,1155.865845 1021.787231,1150.290894 1025.918945,1145.706909 
	C1045.659546,1123.805176 1070.886597,1110.715088 1098.594116,1101.907349 
	C1124.422852,1093.696899 1151.032837,1089.602417 1178.655273,1087.461182 
	C1179.666138,1088.442383 1179.802979,1089.071899 1179.790771,1089.733887 
	C1154.734741,1096.398682 1131.661865,1107.110840 1111.319702,1123.363281 
	C1094.608154,1136.715210 1081.684082,1153.091675 1073.656860,1172.917480 
	C1064.118408,1196.475342 1056.956543,1220.721436 1058.028320,1246.528564 
	C1059.686646,1286.460083 1076.887085,1319.451538 1107.196777,1344.328979 
	C1145.404541,1375.689087 1189.687012,1395.510864 1238.679199,1403.312012 
	C1297.187500,1412.628296 1351.319458,1401.811279 1399.009033,1365.134644 
	C1427.434937,1343.273071 1445.727905,1315.331909 1449.239258,1278.891113 
	C1451.863892,1251.653564 1445.977173,1225.900269 1434.830078,1201.283691 
	C1417.112061,1162.156250 1387.754517,1134.009888 1350.434326,1113.735474 
	C1322.645264,1098.638916 1292.935669,1089.427612 1261.531372,1085.673462 
	C1258.227661,1085.278564 1254.942993,1084.723145 1250.749512,1083.625732 
	C1249.902832,1082.677490 1249.956055,1082.345459 1250.009155,1082.013550 
z"/>
<path fill="#087F01" opacity="1.000000" stroke="none" 
	d="
M498.475220,1164.443481 
	C495.378052,1172.119629 492.655518,1179.974487 489.096283,1187.430054 
	C483.685242,1198.764648 481.424347,1210.935425 480.427643,1223.097290 
	C478.547485,1246.039185 479.671661,1268.963989 484.946320,1291.531128 
	C489.740326,1312.041626 498.914368,1330.219482 513.754822,1345.302612 
	C503.182007,1362.175537 492.813049,1378.723145 482.065704,1395.874634 
	C475.589722,1396.689453 469.775513,1392.779907 464.163635,1389.832642 
	C435.373383,1374.712891 413.537872,1352.322876 397.858246,1323.940063 
	C381.583374,1294.479980 371.999298,1262.938110 367.450348,1229.562378 
	C364.606812,1208.698975 363.763184,1187.872437 363.728729,1166.906860 
	C363.719482,1161.279907 365.393250,1158.173096 371.346161,1157.520508 
	C379.251129,1156.653931 387.107330,1154.250977 394.971558,1154.307617 
	C419.248230,1154.482178 443.529022,1155.286255 467.783600,1156.387329 
	C472.992462,1156.623901 477.907379,1158.369995 483.325928,1156.398438 
	C485.405243,1155.641968 488.712891,1157.575439 491.191711,1158.819214 
	C493.174255,1159.814209 494.749512,1161.620728 497.296722,1163.565796 
	C498.087891,1164.064575 498.475250,1164.443481 498.475220,1164.443481 
z"/>
<path fill="#F8ED41" opacity="1.000000" stroke="none" 
	d="
M536.228516,1363.905151 
	C561.276917,1379.703979 588.270203,1387.151855 616.730408,1390.056396 
	C637.677429,1392.194336 658.535950,1391.745239 679.290710,1387.986572 
	C679.850952,1387.885132 680.512817,1388.345459 681.722595,1388.735962 
	C682.413208,1392.237427 683.162048,1396.033936 684.132935,1400.956421 
	C621.067200,1417.728638 558.617432,1409.538696 494.497437,1402.060913 
	C502.893616,1384.536255 512.423828,1369.682861 523.555908,1355.199585 
	C528.038452,1358.302612 531.817932,1360.918823 536.228516,1363.905151 
z"/>
<path fill="#F8ED41" opacity="1.000000" stroke="none" 
	d="
M521.246460,1135.278320 
	C515.411499,1142.453613 510.057648,1149.105225 504.221802,1156.355713 
	C491.600250,1131.471558 485.801880,1105.491821 483.820862,1078.590210 
	C500.677399,1072.097778 570.432373,1070.454346 612.635681,1079.122681 
	C577.690796,1090.214966 546.589905,1107.477661 521.246460,1135.278320 
z"/>
<path fill="#F1C173" opacity="1.000000" stroke="none" 
	d="
M1718.981689,1304.035889 
	C1713.963257,1301.473022 1712.253052,1297.279785 1710.930786,1292.235107 
	C1705.058105,1269.831177 1701.090332,1247.246216 1702.226318,1223.064209 
	C1709.148926,1224.621338 1716.000366,1227.093140 1723.459595,1230.769043 
	C1724.941284,1233.896484 1725.411499,1237.063843 1726.766846,1237.503662 
	C1730.416260,1238.688599 1734.436890,1238.856934 1738.328247,1239.038696 
	C1738.931763,1239.067139 1739.631104,1237.043823 1740.286133,1235.969238 
	C1758.403809,1240.689331 1776.521484,1245.409424 1796.830322,1250.700317 
	C1766.568604,1264.372314 1741.056519,1281.210327 1718.981689,1304.035889 
z"/>
<path fill="#F4F4F4" opacity="1.000000" stroke="none" 
	d="
M1612.340942,1075.614624 
	C1615.553101,1081.133789 1612.662109,1084.507446 1609.067627,1087.016724 
	C1597.850098,1094.847412 1576.039795,1087.544434 1570.671021,1074.375732 
	C1579.945923,1069.677002 1599.233154,1070.020630 1612.340942,1075.614624 
z"/>
<path fill="#F2F2F2" opacity="1.000000" stroke="none" 
	d="
M259.001831,1067.234741 
	C258.394226,1060.936035 258.394226,1055.338867 258.394226,1049.021973 
	C270.428101,1049.435669 280.810699,1051.747192 289.137970,1062.243408 
	C279.837616,1070.579834 269.536652,1068.373535 259.001831,1067.234741 
z"/>
<path fill="#F1E245" opacity="1.000000" stroke="none" 
	d="
M1739.694336,1235.550049 
	C1739.631104,1237.043823 1738.931763,1239.067139 1738.328247,1239.038696 
	C1734.436890,1238.856934 1730.416260,1238.688599 1726.766846,1237.503662 
	C1725.411499,1237.063843 1724.941284,1233.896484 1724.074951,1231.185303 
	C1729.089233,1231.975464 1734.095947,1233.553223 1739.694336,1235.550049 
z"/>
<path fill="#999228" opacity="1.000000" stroke="none" 
	d="
M1249.131592,1081.801636 
	C1249.956055,1082.345459 1249.902832,1082.677490 1249.922363,1083.508301 
	C1243.759277,1084.007324 1237.523438,1084.007324 1231.287598,1084.007324 
	C1231.282471,1083.604248 1231.277222,1083.201294 1231.272095,1082.798218 
	C1236.932739,1082.395386 1242.593384,1081.992554 1249.131592,1081.801636 
z"/>
<path fill="#847D22" opacity="1.000000" stroke="none" 
	d="
M1180.530518,1089.852905 
	C1179.802979,1089.071899 1179.666138,1088.442383 1179.417480,1087.358643 
	C1182.918091,1086.451294 1186.381226,1086.030640 1189.844238,1085.609985 
	C1189.971436,1086.123657 1190.098633,1086.637329 1190.225830,1087.151001 
	C1187.240723,1088.091309 1184.255493,1089.031616 1180.530518,1089.852905 
z"/>
<path fill="#A39C2A" opacity="1.000000" stroke="none" 
	d="
M1412.853271,1872.130981 
	C1412.247803,1871.631104 1412.225098,1870.967773 1412.153320,1869.310303 
	C1413.717285,1867.648560 1415.330444,1866.980957 1416.943604,1866.313477 
	C1417.200195,1866.666626 1417.456787,1867.019775 1417.713379,1867.373047 
	C1416.287598,1868.904541 1414.861694,1870.436035 1412.853271,1872.130981 
z"/>
<path fill="#087F01" opacity="1.000000" stroke="none" 
	d="
M497.901917,1163.867554 
	C498.160828,1163.778442 498.605682,1163.886230 498.762909,1164.218750 
	C498.475250,1164.443481 498.087891,1164.064575 497.901917,1163.867554 
z"/>
<path fill="#080702" opacity="1.000000" stroke="none" 
	d="
M819.904419,1697.701172 
	C804.233521,1697.889526 789.651550,1696.995850 775.511841,1692.544312 
	C771.714661,1691.348755 767.927002,1690.033447 764.297180,1688.410278 
	C734.915771,1675.272583 725.292908,1645.923096 741.425232,1617.924194 
	C745.563843,1610.741577 750.808594,1604.200806 755.456238,1597.305176 
	C758.974426,1592.085449 762.611084,1586.917236 765.698914,1581.446167 
	C767.731750,1577.844238 770.391174,1576.796753 773.929565,1577.999023 
	C777.730286,1579.290161 778.868103,1582.562622 777.811707,1586.073608 
	C776.971069,1588.867554 775.366333,1591.531372 773.667236,1593.948120 
	C769.073730,1600.481812 764.158813,1606.789307 759.549133,1613.312134 
	C756.673279,1617.381470 753.576538,1621.429321 751.515076,1625.916870 
	C742.080688,1646.453247 745.735168,1666.072998 768.694946,1676.563721 
	C785.246704,1684.126587 802.740601,1685.525391 820.452332,1684.768555 
	C840.066772,1683.930298 859.627380,1681.637451 879.242920,1681.071411 
	C898.158020,1680.525635 917.145142,1680.781250 936.041382,1681.791504 
	C952.213440,1682.655884 967.110046,1688.455688 982.197754,1698.941406 
	C981.059692,1688.375122 980.118652,1679.442383 979.125854,1670.515259 
	C978.721313,1666.877930 978.142029,1663.259766 977.755432,1659.620850 
	C977.328369,1655.601685 978.156738,1652.152832 982.829712,1651.330078 
	C986.713074,1650.646362 989.331604,1653.201660 990.131592,1658.789429 
	C991.546082,1668.669189 992.454712,1678.625000 994.020874,1688.478149 
	C995.898315,1700.290039 997.329407,1712.293823 1000.658325,1723.717896 
	C1003.600464,1733.814575 1008.852661,1743.242676 1013.163147,1752.931152 
	C1013.830017,1754.429932 1015.666382,1755.751099 1015.649658,1757.138550 
	C1015.616943,1759.850586 1015.533569,1763.467407 1013.881470,1765.047363 
	C1011.243713,1767.569702 1007.330566,1766.887939 1005.275574,1763.557861 
	C1001.271057,1757.068848 997.069580,1750.573608 994.137390,1743.582764 
	C990.424988,1734.731812 987.896362,1725.384277 984.617004,1715.529297 
	C982.320312,1716.765625 979.768860,1718.111084 977.243103,1719.503174 
	C953.006958,1732.861572 927.302246,1739.570557 899.525818,1736.107056 
	C880.590576,1733.745728 864.413025,1725.924194 852.981506,1710.141357 
	C850.221313,1706.330444 848.745728,1701.588989 846.153381,1696.177490 
	C838.729980,1696.623291 829.802063,1697.159424 819.904419,1697.701172 
z"/>
<path fill="#0E0E04" opacity="1.000000" stroke="none" 
	d="
M1795.749268,1395.547119 
	C1793.142456,1389.718140 1790.698608,1384.732300 1787.916260,1379.055786 
	C1784.917358,1380.876343 1782.882690,1381.819336 1781.195923,1383.190430 
	C1776.287842,1387.179565 1771.426147,1391.236206 1766.713257,1395.453003 
	C1752.694336,1407.996216 1740.631714,1422.027100 1732.990845,1439.506104 
	C1730.614624,1444.941650 1727.588867,1446.350708 1723.955688,1444.758057 
	C1720.206299,1443.114624 1719.061890,1439.845703 1721.459839,1434.671509 
	C1724.386841,1428.355591 1727.301636,1421.848511 1731.396973,1416.290283 
	C1753.696777,1386.024414 1781.227051,1361.812134 1815.959106,1346.741943 
	C1832.322388,1339.641846 1849.559937,1335.461182 1867.509888,1340.084717 
	C1873.532959,1341.636230 1879.256836,1344.553223 1884.905884,1347.283813 
	C1888.848999,1349.189697 1889.800415,1352.943237 1887.615479,1356.580933 
	C1885.670166,1359.819580 1882.400146,1360.438477 1878.951538,1358.350342 
	C1860.551147,1347.209473 1841.837524,1350.321411 1823.312500,1357.645020 
	C1814.406372,1361.165771 1805.953735,1365.833740 1796.755859,1370.240845 
	C1813.231201,1392.057251 1812.683838,1414.819458 1804.486938,1438.302368 
	C1803.623779,1440.775024 1802.649048,1443.664185 1800.774170,1445.192505 
	C1799.106201,1446.552368 1795.600464,1447.328369 1793.853271,1446.458618 
	C1792.043335,1445.557495 1790.950806,1442.472412 1790.367920,1440.137085 
	C1790.036621,1438.810303 1791.325195,1437.060059 1791.934937,1435.520508 
	C1796.953369,1422.850830 1798.762817,1409.858154 1795.749268,1395.547119 
z"/>
<path fill="#0E0E04" opacity="1.000000" stroke="none" 
	d="
M879.495361,1792.226807 
	C860.158142,1787.519409 844.149292,1778.372925 831.730347,1763.753174 
	C819.000977,1748.768066 819.472656,1731.250488 832.288330,1717.822632 
	C833.432190,1716.624146 834.658203,1714.715942 835.957336,1714.618286 
	C838.630066,1714.417603 841.998718,1714.421753 843.880310,1715.885376 
	C845.166870,1716.885986 845.059998,1720.687378 844.401917,1722.885010 
	C843.786926,1724.938721 841.547791,1726.471924 840.154968,1728.332764 
	C833.875122,1736.721802 833.168152,1744.767822 839.899475,1752.965210 
	C845.079773,1759.273315 851.479980,1764.924561 858.276062,1769.462402 
	C864.818420,1773.830811 872.542786,1776.444702 879.789307,1779.738159 
	C887.268921,1783.137573 887.442505,1786.819580 879.495361,1792.226807 
z"/>
<path fill="#0B0905" opacity="1.000000" stroke="none" 
	d="
M1304.714966,465.259277 
	C1327.701416,489.949707 1353.407593,509.561554 1384.672852,521.108826 
	C1407.433838,529.515198 1430.567261,531.298950 1454.063354,524.231567 
	C1454.698730,524.040466 1455.401245,524.046570 1456.013062,523.808289 
	C1459.927979,522.283691 1463.260498,522.688049 1465.112427,526.894165 
	C1466.716553,530.537354 1464.797729,533.961365 1459.182983,535.390015 
	C1450.848755,537.510681 1442.353394,539.561768 1433.817505,540.213867 
	C1412.933472,541.809143 1392.578491,538.582764 1373.523926,529.750610 
	C1307.028320,498.928345 1262.972168,448.226685 1240.994263,378.414673 
	C1236.785645,365.046326 1235.212524,351.126892 1235.618896,337.053589 
	C1235.666992,335.389893 1235.614258,333.715271 1235.789062,332.064850 
	C1236.164795,328.518585 1238.702393,326.122864 1241.716919,326.801727 
	C1244.002319,327.316406 1245.823730,330.304840 1247.598999,332.405884 
	C1248.098511,332.997131 1247.749268,334.343109 1247.716919,335.340546 
	C1246.746338,365.223358 1256.314575,392.254883 1270.340698,418.000031 
	C1279.611938,435.017639 1290.925659,450.618652 1304.714966,465.259277 
z"/>
<path fill="#0C0A06" opacity="1.000000" stroke="none" 
	d="
M1516.729370,463.310120 
	C1498.944580,444.815887 1481.705811,426.785004 1464.339966,408.877319 
	C1457.157715,401.471039 1449.677002,394.355133 1442.393677,387.045624 
	C1440.774048,385.420135 1438.702637,383.733002 1438.141968,381.712708 
	C1437.615112,379.814911 1438.136108,376.758575 1439.439575,375.466400 
	C1440.724731,374.192413 1443.617920,374.036377 1445.712891,374.259827 
	C1447.123413,374.410278 1448.504395,375.937195 1449.674683,377.078003 
	C1485.873535,412.364532 1522.794067,446.996857 1552.622803,488.172791 
	C1574.474243,518.336853 1591.419678,550.802124 1599.164185,587.631104 
	C1602.897827,605.386292 1602.444458,623.303284 1602.343750,641.236023 
	C1602.320679,645.326111 1600.929321,648.414124 1596.021118,648.355347 
	C1590.830322,648.293213 1590.315796,644.710510 1590.290894,640.828796 
	C1590.238281,632.618286 1590.400269,624.404724 1590.245972,616.196716 
	C1589.789062,591.877991 1583.008545,569.049438 1573.183594,547.076172 
	C1559.345337,516.126648 1539.560059,489.099670 1516.729370,463.310120 
z"/>
<path fill="#0B0906" opacity="1.000000" stroke="none" 
	d="
M894.070496,437.352661 
	C906.017151,471.984802 931.503845,491.582733 963.629150,503.602509 
	C996.420349,515.871460 1030.635742,519.875061 1065.455444,517.672363 
	C1081.617676,516.649902 1097.681885,514.075684 1113.789429,512.195435 
	C1114.779663,512.079895 1115.754639,511.815552 1116.746094,511.730286 
	C1122.634155,511.223938 1126.125610,512.892151 1126.060181,516.543274 
	C1125.970093,521.554932 1122.296997,523.037659 1118.065063,523.819885 
	C1086.602661,529.635620 1055.022095,531.440796 1023.045715,528.604187 
	C1000.043335,526.563599 977.717224,522.183289 956.259644,513.828308 
	C935.231750,505.640594 916.384949,494.038605 901.778564,476.383270 
	C881.757874,452.183441 875.549377,423.980469 877.598694,393.346466 
	C877.838074,389.768860 879.426086,387.695190 883.033142,387.557770 
	C886.970093,387.407715 889.480652,389.284882 889.605896,393.358429 
	C889.787842,399.278015 889.204041,405.260071 889.844116,411.117432 
	C890.776367,419.648376 892.506714,428.092072 894.070496,437.352661 
z"/>
<path fill="#0C0A06" opacity="1.000000" stroke="none" 
	d="
M1116.013672,463.977844 
	C1090.008789,440.343140 1069.289429,413.802490 1057.676392,380.942749 
	C1051.861450,364.489197 1048.856079,347.558411 1049.954102,330.034088 
	C1050.078857,328.043396 1049.738037,325.695160 1050.679321,324.171509 
	C1051.731689,322.468323 1054.124146,320.351501 1055.708496,320.520660 
	C1057.880493,320.752502 1060.197266,322.659760 1061.746704,324.457092 
	C1062.564941,325.406189 1061.954102,327.647705 1061.875610,329.300293 
	C1060.479980,358.672485 1069.603516,385.037445 1085.187378,409.409668 
	C1106.458374,442.676300 1135.477173,467.714081 1169.395996,487.333588 
	C1187.620972,497.875458 1206.855225,505.982330 1227.538086,510.477173 
	C1234.391602,511.966644 1234.582153,512.743713 1232.920654,522.484314 
	C1228.579102,522.042297 1223.967773,522.159363 1219.676636,521.044373 
	C1180.549805,510.877777 1146.727661,490.966736 1116.013672,463.977844 
z"/>
<path fill="#0B0906" opacity="1.000000" stroke="none" 
	d="
M1769.485352,632.610596 
	C1776.036621,657.667664 1778.989746,682.415894 1777.579834,707.409424 
	C1775.471069,744.793091 1767.288208,780.980652 1753.287231,815.763367 
	C1749.814331,824.390930 1746.017334,832.897827 1742.085938,841.328003 
	C1738.968384,848.012939 1735.949341,849.763245 1731.986084,847.956238 
	C1728.360596,846.303345 1728.311768,843.013733 1731.325195,835.811768 
	C1736.582031,823.247375 1742.066772,810.757141 1746.739502,797.973999 
	C1756.007690,772.619141 1761.823608,746.494568 1764.410278,719.528564 
	C1768.236572,679.638245 1763.121704,641.380676 1746.138794,604.909241 
	C1745.998291,604.607422 1745.891846,604.289917 1745.751343,603.988159 
	C1744.134033,600.516052 1742.808838,596.905701 1746.845337,594.269958 
	C1750.264282,592.037415 1754.595947,593.888489 1756.821777,599.267944 
	C1761.261597,609.997803 1765.110474,620.972046 1769.485352,632.610596 
z"/>
<path fill="#0B0905" opacity="1.000000" stroke="none" 
	d="
M887.213623,531.706177 
	C891.895752,532.590942 893.173828,535.464294 891.959229,538.487610 
	C891.127869,540.557068 888.653687,542.325806 886.499207,543.387146 
	C884.870239,544.189575 882.582642,543.766846 880.593323,543.709229 
	C844.547546,542.664429 809.941406,536.098633 779.256226,515.840759 
	C759.714050,502.939331 745.478577,485.788696 740.921326,462.172699 
	C738.181702,447.975952 738.865784,433.712067 742.891052,419.739471 
	C743.981750,415.953491 746.088684,412.745422 750.733093,414.258209 
	C754.409668,415.455811 755.645630,418.374817 754.583191,422.235107 
	C753.879578,424.791473 753.308105,427.400177 752.904114,430.020386 
	C750.642395,444.689819 750.606018,459.185791 756.936768,473.036102 
	C763.659790,487.744629 774.664795,498.695465 788.140015,507.141876 
	C809.053528,520.250549 832.226624,527.073547 856.538818,529.996826 
	C866.386780,531.180969 876.383545,531.127136 887.213623,531.706177 
z"/>
<path fill="#0D0A06" opacity="1.000000" stroke="none" 
	d="
M1806.611572,920.704468 
	C1799.014771,938.506531 1791.728271,955.581543 1784.368530,972.624939 
	C1783.585205,974.438721 1782.442139,976.113037 1781.344971,977.771912 
	C1779.354370,980.781128 1776.711426,983.035400 1773.052002,981.004578 
	C1769.162231,978.845764 1768.995728,975.392029 1770.913086,971.548523 
	C1776.097168,961.157471 1781.961914,951.015869 1786.117188,940.221191 
	C1793.862549,920.100525 1800.570312,899.581055 1807.747070,879.240601 
	C1810.502686,871.430786 1810.548828,871.447083 1820.378052,872.957703 
	C1819.891113,876.630310 1819.912476,880.524902 1818.807129,884.068115 
	C1815.052979,896.101746 1810.900757,908.011230 1806.611572,920.704468 
z"/>
<path fill="#060606" opacity="1.000000" stroke="none" 
	d="
M1250.291260,1227.709229 
	C1240.819214,1217.767944 1237.763916,1206.598877 1240.914795,1194.086548 
	C1245.910767,1174.247192 1267.133911,1163.293335 1286.383057,1170.272949 
	C1305.042480,1177.038696 1314.178833,1198.800659 1306.014404,1217.032715 
	C1297.675171,1235.654907 1275.041626,1243.046875 1257.247070,1232.880981 
	C1254.958984,1231.573853 1252.945923,1229.785278 1250.291260,1227.709229 
z"/>
<path fill="#040404" opacity="1.000000" stroke="none" 
	d="
M733.252319,1206.230713 
	C727.800781,1224.856689 707.566467,1237.648071 686.838989,1230.124634 
	C670.223755,1224.093750 660.762878,1206.362671 664.900269,1189.231079 
	C669.324219,1170.913452 685.584656,1159.493286 704.237610,1161.603882 
	C721.749390,1163.585327 734.692749,1178.485352 734.465149,1196.554199 
	C734.427734,1199.522705 733.859802,1202.484619 733.252319,1206.230713 
z"/>
</svg>